<svg height="709.982" viewBox="0 0 1174.756 709.982" width="1174.756" xmlns="http://www.w3.org/2000/svg"><g fill="#e5e2d9" transform="translate(-9.974 -211.288)"><g><path d="m710.39 600.39c-23.99-19.15-45.76-40.62-68.27-61.43-11.14-10.3-22.5-20.38-34.59-29.57-10.78-8.19-21.5-16.36-31.96-24.97-11.13-9.16-22.12-18.49-33.17-27.74-6.56-5.49-13.94-9.43-21.51-13.35-19.39-10.06-39.25-19.47-59.72-27.14-12.71-4.76-25.91-8.1-39.58-6.69-12.89 1.33-25.22 5.62-37.38 9.93-11.22 3.97-23.66 8.04-33.01 15.67-5.61 4.57-10.78 9.47-16.74 13.63a195.954 195.954 0 0 1 -19.68 11.94c-13.97 7.48-28.67 13.36-43.01 20.07a179.971 179.971 0 0 0 -39.77 24.78c-24.98 20.89-50.64 40.99-74.89 62.73-20.8 18.65-42.32 39.09-55.69 63.96a98.725 98.725 0 0 0 -6.47 14.84h16.62c8.56-21 25.83-38.58 41.76-53.99 22.87-22.12 47.83-41.96 72.39-62.14 11.79-9.69 23.1-19.91 36.34-27.62 13.27-7.72 27.53-13.42 41.47-19.77 13.87-6.33 27.53-13.3 39.98-22.15 6.31-4.48 11.97-9.57 17.87-14.54.8-.68-.03-.06 1.25-.88 1.03-.66 2.06-1.29 3.13-1.89 2.46-1.38 5-2.59 7.57-3.74 9.94-4.45 20.41-7.8 30.77-11.1 13.05-4.15 25.91-5.93 39.3-2.44a168.793 168.793 0 0 1 18.69 6.41c2.3.9 4.6 1.79 6.89 2.73.13.05.22.09.3.12.36.15.73.31 1.09.47.99.43 1.97.85 2.95 1.29 9.95 4.38 19.77 9.05 29.51 13.87 8.33 4.13 16.81 8.23 24.67 13.2.82.52 3.71 2.78 1.69 1.06 2.36 2.01 4.76 3.98 7.13 5.98 5.42 4.55 10.82 9.11 16.25 13.65 11.23 9.39 22.52 18.7 34.12 27.64 10.51 8.1 21.05 15.94 31.02 24.72 22.31 19.65 43.03 41.05 65.66 60.35 18.44 15.72 39.15 29.2 56.4 46.26.83.82 1.6 1.68 2.41 2.52h20.28a10.612 10.612 0 0 0 -1.36-2.21c-14.38-17.58-33.11-30.39-50.72-44.45z"/><path d="m657.98 624.33c-12.59-7.16-25.18-14.28-35.84-24.23-17.22-16.08-30.92-35.62-49.22-50.65-17.01-13.97-36.95-23.48-56.66-32.96-8.5-4.09-15.64-9.62-23.17-15.27-9.93-7.45-20.05-14.79-31.04-20.61-10.36-5.48-22.25-10.31-34.2-9.39-10.85.84-21.12 4.46-31.04 8.73-21.84 9.4-41.99 22.67-61.32 36.4-15.83 11.24-31.4 22.68-47.4 33.68-20 13.75-40 27.61-58.99 42.73-9.04 7.2-17.86 14.78-25.35 23.61-6.16 7.25-11.46 15.18-17.16 22.78-.77 1.03-1.55 2.06-2.34 3.08-.16.21-.32.41-.48.62-.52.66-1.03 1.32-1.55 1.97a10.469 10.469 0 0 0 -1.33 2.21h19.1c3.86-5.17 7.68-10.37 11.51-15.56.29-.36.57-.73.86-1.09.68-.85 1.36-1.69 2.06-2.52q2.16-2.565 4.45-5a160.07 160.07 0 0 1 11.72-11.14c30.06-26.08 66.22-47.5 99.05-71.89 17.49-12.99 35.42-25.51 54.46-36.14 9.54-5.32 19.37-10.28 29.78-13.67 9.8-3.18 17.09-4.52 26.81-1.63 21.56 6.39 38.9 22.82 56.91 35.5 9.02 6.35 19.73 10.29 29.53 15.28a242.45 242.45 0 0 1 26.48 15.16 130.154 130.154 0 0 1 18.55 15.41c7.84 7.63 15.17 15.78 22.52 23.88 10.71 11.79 21.28 22.88 34.62 31.78 10.78 7.19 22.62 12.67 33.28 20.01.72.5 1.46 1.05 2.2 1.62h21.21a5.4 5.4 0 0 0 -.33-.63c-7.03-9.92-17.29-16.18-27.68-22.09z"/><path d="m546.18 613.11c-11.56-10.96-22.88-22.11-34.22-33.3-18.83-18.59-41.39-35.32-68.01-40.17-11.03-2.01-21.14-1.91-31.37 2.87-7.67 3.58-15.39 7-22.98 10.76a261.479 261.479 0 0 0 -31.26 17.73c-11.2 7.62-21.06 16.97-32.29 24.58-10.82 7.34-22.35 13.68-32.78 21.59a98.667 98.667 0 0 0 -26.31 29.71c-.03.06-.05.12-.08.18h16.98a81.085 81.085 0 0 1 16.44-17.33c8.18-6.38 17.28-11.54 25.99-17.15 11.68-7.51 22.32-16.04 33.13-24.71 8.54-6.86 18.35-12.28 28-17.39 8.78-4.65 17.75-8.92 26.79-13.03 6.5-2.96 11.55-5.16 19-4.77 24.65 1.3 46.86 16.63 64.2 33.03 12.09 11.43 23.66 23.41 35.76 34.85 9.11 8.61 18.22 17.26 26.68 26.51h18.6a9.677 9.677 0 0 0 -1.12-1.76c-9.52-11.52-20.31-21.91-31.15-32.18z"/><path d="m488.68 621.02c-5.35-4.03-11.12-7.4-16.48-11.45a117.492 117.492 0 0 0 -15.79-9.73c-12.28-6.57-25.13-9.72-38.46-3.98-11.01 4.74-21.01 12.08-30.01 19.92-10.23 8.91-19.49 19.42-26.24 31.27h18.16a117.34 117.34 0 0 1 39.79-35.06c4.68-2.52 9.44-4.44 14.87-4.01 4.61.37 8.93 2.3 12.97 4.43a116.373 116.373 0 0 1 13.48 7.78c4.87 3.46 9.4 7.29 14.54 10.35 7.12 4.24 13.26 10.13 18.83 16.5h19.59c-7.51-9.54-15.5-18.69-25.25-26.03z"/><path d="m1183.68 646.53c-4.93-10.11-13.23-18.94-20.69-27.22-8.22-9.12-16.81-17.96-25.87-26.24a141.562 141.562 0 0 1 -12.25-12c-4.8-5.57-9.11-11.53-13.56-17.39a193.222 193.222 0 0 0 -14.35-17.42 92.011 92.011 0 0 0 -17.45-13.67c-13.16-8.36-26.96-15.89-38.63-26.33a252.724 252.724 0 0 1 -32.97-35.99c-9.18-12.15-17.74-24.75-27.04-36.8a183.111 183.111 0 0 0 -17.6-20.43 212.057 212.057 0 0 0 -18.65-15.59c-13.03-9.95-26.56-19.38-37.89-31.33-10.52-11.1-19.75-23.37-29.51-35.13-9.71-11.69-19.9-23.14-32.25-32.12-6.92-5.04-14.65-9.05-22.01-13.41q-13.335-7.89-26.68-15.77c-31.36-18.54-62.58-39.33-97.39-50.88-33.6-11.15-68.85-9.79-101.69 3.32a230.343 230.343 0 0 0 -45.4 24.59c-13.44 9.28-25.57 20.2-38.77 29.79-24.79 18.01-51.07 33.69-71.69 56.77a216.811 216.811 0 0 0 -14.08 17.76c-.45.01-.91-.03-1.37 0-7.93.47-15.78-.47-23.7-.33-9.15.16-18.42 2.99-27.24 5.21a199.992 199.992 0 0 0 -26.64 8.43 107.956 107.956 0 0 0 -25.28 13.97c-7.81 5.98-14.46 13.36-21.84 19.86-14.4 12.67-29.51 26.63-47.68 33.52-19.03 7.22-39.65 10.84-56.46 23.03-16.15 11.71-27.83 28.1-41.05 42.79a529.476 529.476 0 0 1 -46.86 45.97c-30.02 26.03-66.46 46.8-88.51 80.83a89.946 89.946 0 0 0 -10.64 22.72h16.48c5.68-14.89 16.37-27.48 27.71-38.49 13.87-13.45 29.52-24.63 44.7-36.5a537.774 537.774 0 0 0 47.7-42.04c14.68-14.57 27.73-30.41 41.5-45.8 6.09-6.8 12.59-13.43 20.31-18.39 8.22-5.28 17.37-8.74 26.63-11.71 9.2-2.96 18.51-5.55 27.44-9.3 9.59-4.03 17.75-9.51 25.9-15.91 7.72-6.05 15.33-12.25 22.73-18.71 7.01-6.12 13.29-13.26 20.59-18.99 14.38-11.29 32.64-16.66 50.13-20.91 8.19-1.99 15.77-4.15 23.88-3.95 7.36.18 14.62.29 21.97.24 14.4-.11 28.45 5.02 42.89 5.13 32.78.26 54.99 30.25 82.43 43.99 3.61 1.81 7.36 3.25 11.09 4.77-2.42-.99.39.26.87.52 1.14.61 2.25 1.28 3.35 1.96a171.12 171.12 0 0 1 14.37 10.18 313.248 313.248 0 0 1 30.7 26.84c1.79 1.8 3.56 3.64 5.23 5.56.6.68 1.18 1.39 1.75 2.1.11.15.25.33.33.44.64.86 1.26 1.72 1.94 2.55 3.79 4.64 8.54 8.56 13.05 12.47 15.46 13.37 31.45 26.9 48.3 38.5a145.631 145.631 0 0 0 15.96 9.35 53.3 53.3 0 0 1 4.7 2.69c.08.05.19.13.29.2.56.43 1.11.87 1.68 1.28 1.17.86 2.37 1.7 3.57 2.52 5.96 4.09 12.04 8 18 12.09 1.23.85 2.46 1.7 3.67 2.57.35.26.7.52 1.05.77.09.08.19.16.26.21a129.95 129.95 0 0 1 12.29 11.87c12.22 13.47 20.98 29.53 32.47 43.56 11.76 14.36 26.46 25.17 40.98 36.47.71.55 1.51 1.21 2.31 1.86h20.49c-.09-.21-.14-.42-.25-.63-2.63-5.06-7.15-8.86-11.56-12.32-6.39-5.02-13.02-9.73-19.26-14.94a162.981 162.981 0 0 1 -21.67-21.49c-5.44-6.65-10.09-13.92-14.98-20.97-10.54-15.21-22.16-29.59-37.51-40.18-5.96-4.11-12.05-8.02-18.02-12.11-1.14-.78-2.26-1.59-3.4-2.38-.17-.11-.51-.36-.71-.51-.47-.37-.94-.75-1.42-1.1a41.78 41.78 0 0 0 -5.09-2.98c-15.64-8.08-29.04-19.11-42.69-30.13-7.13-5.75-14.23-11.56-21.1-17.63-2.46-2.17-4.9-4.37-7.22-6.69-.83-.84-1.62-1.71-2.43-2.57-.07-.07-.09-.1-.14-.15-.3-.4-.59-.82-.89-1.22-1.75-2.33-3.63-4.56-5.59-6.74 8.36-8.53 17.49-15.29 29.79-17.62a51.753 51.753 0 0 1 8.95-.92 8.1 8.1 0 0 1 .86.06c.06.01.1.02.18.04 1.11.28 2.22.54 3.32.89a76.3 76.3 0 0 1 13.68 6.2 241.818 241.818 0 0 1 31.64 20.48c8.27 6.3 17.56 16.41 26.91 23.42 8.67 6.5 16.26 10.9 23.58 18.33 11.79 11.98 21.61 25.97 32.06 39.11 20.08 25.24 41.76 47.99 67.67 67.34 10.22 7.63 20.96 14.56 31.27 22.07 5.44 3.96 10.82 8 15.89 12.42 1.09.95 2.16 1.91 3.21 2.9h19.53c-4.56-9.58-14.35-16.4-22.53-22.67-10.49-8.05-21.44-15.46-32.27-23.02-25.44-17.77-47.07-39.53-66.53-63.59-11.08-13.7-21.41-28.17-33.2-41.27-7.97-8.85-17.2-15.45-26.87-22.25-9.79-6.88-17.79-16.08-27.28-23.53a255.291 255.291 0 0 0 -32.48-21.73 116.669 116.669 0 0 0 -19.05-8.91c-6.82-2.34-13.21-1.93-20.26-.83-15.84 2.47-28.28 11.07-39.14 22.11-3.61-3.26-7.31-6.4-10.96-9.49-9.75-8.26-19.88-16.82-30.98-23.26 6.03-5.66 11.86-11.53 18.11-16.95a89.787 89.787 0 0 1 24.53-15.12c19.25-8.03 39.4-14.59 60.05-7.2 9.75 3.49 18.52 10.81 26.85 16.82 9.63 6.95 19.15 14.06 29.25 20.32a124.43 124.43 0 0 0 16.51 8.71c5.21 2.23 10.68 3.71 15.92 5.85a92.866 92.866 0 0 1 22.37 13.36c30.06 23.95 48.2 59.46 71.67 89.2 20.74 26.27 47.64 47.56 73.25 68.84 14.76 12.26 29.66 24.36 44.19 36.89 5.69 4.91 11.34 9.87 16.73 15.11.87.85 1.69 1.75 2.54 2.61h20.2a6.342 6.342 0 0 0 -.33-.63c-6.03-9.24-15.03-16.69-23.23-23.9-12.83-11.29-26.08-22.1-39.24-32.99-14.53-12.02-29.06-24.05-43.19-36.54-11.87-10.49-23.72-21.24-34.04-33.3-25.55-29.87-43.21-66.35-73.04-92.57a119.59 119.59 0 0 0 -23.94-16.72c-9.84-5.07-20.67-7.52-30.43-12.72-10.79-5.75-20.77-12.98-30.65-20.15-9.54-6.92-19.12-14.69-29.67-20.03-10.94-5.54-23.61-7.51-35.79-6.92-13.09.64-24.61 4.75-36.67 9.5-11.05 4.35-21.16 9.47-30.51 16.89-9.47 7.52-17.75 16.37-26.75 24.43-.95-.46-1.92-.91-2.84-1.43a197.876 197.876 0 0 1 -20.78-13.9c-6.17-4.57-12.31-9.23-18.68-13.52 15.25-19.44 35.82-33.47 56.33-47 11.12-7.34 21.84-15.49 33.87-21.32 11.56-5.61 24.42-9.43 37.29-10.12 13.06-.7 25.19 1.97 36.42 8.69 13.36 7.99 27.21 14.3 42.54 17.33 7.55 1.49 15 2.56 22.19 5.44 6.94 2.78 13.41 6.7 19.7 10.7a310.71 310.71 0 0 1 34.42 25.41c19.09 16.25 36.19 34.61 52.15 53.9 12.13 14.66 23.39 30.13 36.23 44.19 11.64 12.75 24.5 24.53 36.62 36.83 14.82 15.04 29.54 30.22 44.94 44.66 35.57 33.34 81.49 54.79 110.49 95.2 2.46 3.43 4.74 6.98 6.93 10.58h17.54c-.08-.17-.13-.35-.22-.52-13.38-24.36-32.4-44.44-53.9-61.81-11.14-9-22.73-17.43-34.28-25.89-9.41-6.89-19.14-13.56-27.97-21.19-15.21-13.15-29.17-27.85-43.28-42.14-13.49-13.66-26.97-27.32-40.66-40.78-13.08-12.85-23.91-27.98-35.4-42.2-15.65-19.36-32.16-38.04-50.64-54.75a347.819 347.819 0 0 0 -34.5-27.45c-12.74-8.86-26.24-17.61-41.32-21.85-7.46-2.1-15.25-2.8-22.75-4.76a98.558 98.558 0 0 1 -21.4-8.5c-6.75-3.59-13.05-7.91-20.13-10.85a74.344 74.344 0 0 0 -20.5-5.09c-28.13-3.14-55.46 8.37-78.19 23.94-22.81 15.63-47.11 29.7-66.12 50.12a146.5 146.5 0 0 0 -9.43 11.37 89.32 89.32 0 0 0 -10.85-4.8c-7.95-2.86-15.97-3.58-24.35-3.8-7.29-.19-14.54-1.68-21.72-2.84-.8-.13-1.61-.27-2.41-.4a193.076 193.076 0 0 1 26.13-27.2c10.93-9.34 22.85-17.36 34.7-25.46 26-17.78 49.11-39.55 76.96-54.55 29.3-15.79 62.46-23.86 95.5-16.79 34.3 7.35 64.46 26.71 94.25 44.32q25.2 14.895 50.4 29.8c6.44 3.81 12.95 7.4 18.67 12.26a162.33 162.33 0 0 1 15.43 15.27c10.2 11.33 19.42 23.48 29.23 35.14a217.152 217.152 0 0 0 34.19 32.33c12.64 9.74 25.88 18.75 36.86 30.44 10.67 11.37 19.5 24.49 28.59 37.12 18.65 25.91 38.99 50.22 66.08 67.66 12.03 7.74 25.41 14.19 35.3 24.73 10.05 10.72 17.83 23.31 27.46 34.38 7.16 8.23 15.9 15.11 23.59 22.86 8.91 8.97 17.74 18.23 25.45 28.26q1.38 1.785 2.68 3.65h17.64c-.07-.17-.11-.35-.19-.52z"/><path d="m826.8 652.39c.1.12.22.22.32.34-.27-.35-.35-.42-.32-.34z"/><path d="m1002.21 652.98.02.04s.06.07.09.11c1.09 1.3-1.05-1.46-.12-.15z"/><path d="m921.04 651.46c.51.54-.02-.06 0 0z"/></g><g><path d="m77.85 897.36h-3.57a5.945 5.945 0 0 0 -1.73.26h-4.89a4.155 4.155 0 0 0 -.59.03c-2.73.25-5.3.48-8.33.48-3.42 0-6.68-.22-10.14-.45l-1.06-.06c-.69 0-1.28-.05-1.92-.11-.92-.08-1.85-.15-2.92-.15h-9.42c-.98 0-2.03.06-3.12.13q-.9.06-1.83.09l.02-6.13a14.828 14.828 0 0 0 .21-2.38l-.02-7.61c.28-3.07.28-6.06.28-8.95 0-10.15-.22-17.97-.45-26.26l-.06-12.71c0-1.18-.06-2.43-.13-3.74-.06-1.24-.13-2.54-.13-4.17l-1.52-33.1c0-4.81 0-9.79.25-15.28v-11.21c0-3.22 0-7.64-.24-10.91a11.381 11.381 0 0 0 -3.04-9.11 5.937 5.937 0 0 0 -4.23-1.75h-1.53a6.057 6.057 0 0 0 -4.23 1.75 17.866 17.866 0 0 0 -2.69 3.44 6.012 6.012 0 0 0 -.82 3.61c.23 2.54.23 5.21.23 7.36l-.02 23.22c-.04 7.15-.08 14.54.53 21.62 0 1.54.07 2.93.14 4.38.06 1.04.11 2.03.13 3.49.74 9.18.74 16.94.74 26.77 0 5.02 0 12.61.25 18.34v10.44c0 9.98 0 20.3-.25 30.31v4.11a7.665 7.665 0 0 0 -.25 2v1.78a6.13 6.13 0 0 0 .63 2.68 8.852 8.852 0 0 0 8.15 4.84h3.57a6.063 6.063 0 0 0 1.74-.26h.81a56.206 56.206 0 0 0 7.03-.29 32.305 32.305 0 0 1 6.42-.25c.93.1 1.83.14 2.75.18.86.04 1.74.08 2.79.17l22.53.18a15.737 15.737 0 0 0 2.25-.19 5.216 5.216 0 0 1 .58-.05c.23-.02.47-.03.71-.06a48.779 48.779 0 0 1 5.63-.21h2.04c3.95 0 6.65-1.89 7.84-5.55 1.02-4.06-.43-6.58-1.82-7.97a9.9 9.9 0 0 0 -7.29-2.78z"/><path d="m209.36 904.54a11.959 11.959 0 0 0 -.81-3.09l-.77-3.86a6.463 6.463 0 0 0 -.26-.93 22.07 22.07 0 0 1 -.89-3.76 6.815 6.815 0 0 0 -.1-1.1l-2.8-15.03a4.913 4.913 0 0 0 -.17-.66c-.92-2.98-1.61-6.43-2.35-10.13l-.72-4.57c-.16-1.4-.47-2.92-.76-4.27-.21-.97-.41-1.94-.52-2.86a5.361 5.361 0 0 0 -.1-.62l-2.54-12.18c-.92-4.37-2.02-9.42-3.41-14.13l-6.65-24.06-1.45-4.83-5.86-23.43a5.46 5.46 0 0 0 -.56-1.42l-.11-.66a6.578 6.578 0 0 0 -.17-.74l-5.86-19.62a5.96 5.96 0 0 0 -4.69-4.18l-4.34-.76a5.973 5.973 0 0 0 -1.03-.09h-4.58a6.557 6.557 0 0 0 -1.31.14 8.921 8.921 0 0 0 -5.81 1.87c-3.9 3.05-4.63 8.65-4.68 11.49l-2.12 8.73-1.43 5.28a168.808 168.808 0 0 0 -4.52 17.52l-.22 1.02c-.31 1.4-.62 2.91-.81 4.36-2.26 9.27-4.38 20.4-6.42 31.16-.75 3.94-1.5 7.86-2.23 11.63-.71 3.56-1.63 7.02-2.74 11.18l-3.88 15.28-5.09 24.94a6.26 6.26 0 0 0 -.13 1.23l.03.68a58.287 58.287 0 0 0 -1.09 7.53c-.17 1.66-.32 3.22-.6 4.64a5.131 5.131 0 0 0 -.12 1.01 10.484 10.484 0 0 0 -.24 2.2 5.979 5.979 0 0 0 .85 3.08 8.738 8.738 0 0 0 7.57 4.26 7.016 7.016 0 0 0 1.38-.12 7.8 7.8 0 0 0 7.08-6.04 5.4 5.4 0 0 0 .13-.72l.77-6.37a7.148 7.148 0 0 0 .04-.77 5.917 5.917 0 0 0 .25-1.72c0-.44-.02-.87-.05-1.29a5.781 5.781 0 0 0 .5-1.66v-.05a8.188 8.188 0 0 0 .25-1.18l2.19-11.49 1.39-5.85h2.47c10.26 0 19.3-.34 27.62-1.03 6.5-.4 12.94-.64 19.16-.72.9 4.32 2.06 9.01 3.42 13.88l.43 2.35c.15 1.03.3 1.83.46 2.68a5.963 5.963 0 0 0 .24 1.53 5.271 5.271 0 0 0 .1.89l.84 4.43.43 1.7a7.107 7.107 0 0 0 .27 1.06 6.181 6.181 0 0 0 .37 1.2c.16.37.29.72.43 1.1a12.781 12.781 0 0 0 2.87 4.85 6.317 6.317 0 0 0 .9.74 8.6 8.6 0 0 0 6.83 1.45 8.085 8.085 0 0 0 4.91-3.41c1.6-2.16 1.25-4.61 1.01-6.23l-.19-1.44zm-26.06-43.8c-7 .11-12.68.41-18.74.98-8.14.57-15.61.83-24.02.84 1.1-3.78 2.15-7.53 2.97-11.46 1.42-5.49 2.38-11.12 3.31-16.57l.9-5.24c1.94-13.82 4.96-25.75 8.45-39.57l1.66-6.62 1.52-7.13.04-.18a6.07 6.07 0 0 0 .29-.7 18.054 18.054 0 0 0 .58-2.23l.19-.52 1.47 4.49.18 1.28a7.6 7.6 0 0 0 .17.8l2 6.99 2.95 11.69c1.21 4.99 2.46 10.14 3.95 15.16l.77 2.79c4.13 14.88 8.41 30.24 11.33 45.21z"/><path d="m326.09 787.69a6.583 6.583 0 0 0 -.32-2 35.442 35.442 0 0 0 -2.33-10.85 8.892 8.892 0 0 0 -.3-1.25 5.951 5.951 0 0 0 -.64-1.62c-.46-.8-.92-1.51-1.43-2.31a24.616 24.616 0 0 1 -1.57-2.68l-.72-1.33c-2.73-5.04-5.82-10.76-12.8-13.39l-.86-.52a6.442 6.442 0 0 0 -.74-.38 21.59 21.59 0 0 0 -6-1.63l-1.33-.28c-.65-.14-1.12-.24-1.49-.28a48.75 48.75 0 0 0 -9.06-.83c-4.83 0-7.91.4-10.2 1.29-7.01 1.78-15.86 4.87-22.08 13.05a6.028 6.028 0 0 0 -.51.8 108.974 108.974 0 0 0 -5.93 13.74 28.912 28.912 0 0 0 -1.09 16.04 45.5 45.5 0 0 0 1.87 10.3 5.788 5.788 0 0 0 .25.57l1.44 2.86 2.24 3.74a32.372 32.372 0 0 0 5.33 7.44c1.26 1.26 2.62 2.7 4.15 4.34 4.19 4.46 9.4 10.01 15.21 14.5l1.91 1.68a42.083 42.083 0 0 0 8 7l4.81 3.77.56.56a3.512 3.512 0 0 0 .53.46l4.42 4.45 1.79 2.16a9.738 9.738 0 0 0 1.89 2.38 7.133 7.133 0 0 0 1.25 1.68l1.16 1.33.55.92a6.3 6.3 0 0 0 .89 1.15l.18.18a21.539 21.539 0 0 1 1.7 3.97 6.849 6.849 0 0 0 .21 1.06 7.713 7.713 0 0 0 .28 1.81c.17 7.44-.76 13.32-2.76 17.5-.1.22-.2.46-.33.83l-.05.16a6.032 6.032 0 0 0 -.51.8 19.4 19.4 0 0 1 -6.11 6.63 5.745 5.745 0 0 0 -1.36 1.38 5.264 5.264 0 0 0 -2.04 1.01l-.21.07a37.048 37.048 0 0 1 -11.76.76h-3.13a6.959 6.959 0 0 0 -1.1-.2 6.176 6.176 0 0 0 -1.05-.25 14.1 14.1 0 0 1 -1.83-.42 5.057 5.057 0 0 0 -1.3-.59 5.142 5.142 0 0 0 -.9-.39 4.148 4.148 0 0 0 -.65-.27 19.458 19.458 0 0 1 -8.05-7.89 5.918 5.918 0 0 0 -.94-1.22l-.09-.23a6.183 6.183 0 0 0 -.41-.95c-.02-.07-.04-.15-.06-.22a6.151 6.151 0 0 0 -.28-1.38 23.3 23.3 0 0 1 -.71-7.28l-.02-2.78c-.41-4.94-1.76-8.39-4.02-10.27a7.117 7.117 0 0 0 -5.4-1.55 8.155 8.155 0 0 0 -7.14 6.61 15.64 15.64 0 0 0 -.23 5.2v2.55a4.782 4.782 0 0 0 .26 1.65v.81a48.007 48.007 0 0 0 2.04 10.47 5.862 5.862 0 0 0 .47 1.13 3.18 3.18 0 0 0 .22.62 5.809 5.809 0 0 0 .68 1.65 7.854 7.854 0 0 1 .4.82l.11.25a23.763 23.763 0 0 0 1.87 3.53 8.713 8.713 0 0 0 1.65 2.21 37.255 37.255 0 0 0 8.61 9.02 7.314 7.314 0 0 0 .76.46l2.55 1.28c.21.1.47.19.45.19a36.653 36.653 0 0 0 7.18 3.01l.53.18a7.662 7.662 0 0 0 2.05.35 11.3 11.3 0 0 0 1.65.19 75.872 75.872 0 0 0 7.87.27c6.31 0 11.5-.81 15.65-2.42a5.939 5.939 0 0 0 2.23-.84 5.75 5.75 0 0 0 1.45-.77l3.2-1.69a5.648 5.648 0 0 0 1.51-1.08l1.44-1.27a4.934 4.934 0 0 0 .64-.56l1.37-1.35c2.82-2.74 6.02-5.85 7.9-9.9l1.21-2.45a44.971 44.971 0 0 0 2.93-23.99 6.476 6.476 0 0 0 -.23-.99 5.643 5.643 0 0 0 -.24-1.26 5.076 5.076 0 0 0 -.12-.75 43.484 43.484 0 0 0 -5.33-13.53 4.282 4.282 0 0 0 -.32-.47l-4.37-5.72-6.18-6.67-1.09-1.51a6.054 6.054 0 0 0 -1.06-1.14l-7.06-5.8c-.93-.79-1.87-1.56-2.79-2.32-2.28-1.88-4.43-3.66-6.28-5.49-.16-.16-.32-.3-.49-.44l-1.42-1.13a78.453 78.453 0 0 1 -8.02-7.35l-2.09-2.07a41.114 41.114 0 0 1 -9.41-11.42 5.94 5.94 0 0 1 -1.29-2.31l-1.69-2.91c-1.02-3.28-2.05-9.23-1.87-11.97a32.512 32.512 0 0 1 2.04-6.99l3.08-6.63c2.41-3.8 9.94-7.9 20.76-7.9h.31a6.225 6.225 0 0 0 1.14.23 28.445 28.445 0 0 1 5.88 1.17l1.32.46a5.146 5.146 0 0 0 .92.56l.2.08a4.947 4.947 0 0 0 .75.51c3.08 1.79 5.26 4.6 7.33 9.48l1.06 2.06 1.57 4.21a62.143 62.143 0 0 1 1.32 7.86v1.36a8.656 8.656 0 0 0 3.92 9.12 6.317 6.317 0 0 0 1.63.68 8.185 8.185 0 0 0 8.23-2.09 6.521 6.521 0 0 0 .55-.63c1.96-2.61 1.96-5.94 1.96-7.92a7.053 7.053 0 0 0 -.25-1.98v-1.58z"/><path d="m505.1 791.23a6.662 6.662 0 0 0 -.25-1.7v-.59a15.135 15.135 0 0 0 -.44-3.08l-.18-.9c-.19-.93-.38-1.65-.47-1.96-1.25-10.8-8.48-18.2-14.67-23.46-8.37-6.65-19.88-9.79-31.47-8.68a37.058 37.058 0 0 0 -5 .25h-3.65a8.188 8.188 0 0 0 -2.06-.25h-3.31a18.345 18.345 0 0 0 -3.98.3 7.386 7.386 0 0 0 -1.08.21h-3.34a3.255 3.255 0 0 1 -.48-.05 10.237 10.237 0 0 0 -6.3.94c-5.01 2.42-5.04 8.59-5.02 11.64a11.041 11.041 0 0 0 -.29 2.87v6.11c0 .83-.05 1.67-.11 2.68-.07 1.14-.14 2.29-.14 3.43v5.8c-.25 5-.25 10.26-.25 15.34 0 2.09 0 4.95.25 7.4 0 5.07.09 8.52.25 10.18a8.742 8.742 0 0 1 -.09.99 21.5 21.5 0 0 0 -.17 2.32v7.13a25.849 25.849 0 0 0 .17 2.65 11.493 11.493 0 0 1 .08 1.17v20.89c0 1.1.07 1.97.16 2.93a15.759 15.759 0 0 1 .1 1.66v28.53c0 3.15 0 7.48-.21 10.93a29.086 29.086 0 0 0 -.3 4.86v5.35c0 2.63.24 5.37 1.97 7.68a6.489 6.489 0 0 0 .54.62 8.033 8.033 0 0 0 5.76 2.26 8.337 8.337 0 0 0 6.01-2.52c2.01-2.01 2.01-4.41 2.01-6.52v-5.07a105.273 105.273 0 0 0 .76-15.05c0-1.52-.06-2.82-.14-4.32-.05-1.05-.11-2.11-.11-3.32l-.02-14.54a79.464 79.464 0 0 0 .02-11.44 7.7 7.7 0 0 0 -.25-2.04v-2.29a3.085 3.085 0 0 0 -.03-.54 70.979 70.979 0 0 1 -.23-7.1v-.35c3.98.22 7.69.22 11.6.22h8.67a3.082 3.082 0 0 0 .54-.03l5.77-.53c1.77-.22 3.45-.34 5.16-.47 4.15-.32 8.08-.62 11.83-2.31l.75-.21a5.529 5.529 0 0 0 1.02-.4l1.54-.77c.25-.13.48-.27.71-.42l4.08-2.8a5.025 5.025 0 0 0 .63-.51l3.78-3.51c.13-.14.27-.28.39-.43a42.646 42.646 0 0 0 6.02-9.97l1.52-3.81a4.793 4.793 0 0 0 .24-.73 57.845 57.845 0 0 0 1.72-21.4v-3.28zm-16.28 10.65c-.23 4.41-.43 8.22-1.98 11.52a6.185 6.185 0 0 0 -.5 1.6c-.02.1-.04.2-.06.29-.1.13-.2.26-.29.4l-1.02 1.53a6.43 6.43 0 0 0 -.36.63l-.83 1.67a17.217 17.217 0 0 1 -1.29 1.32l-.43.44a10.293 10.293 0 0 1 -2.87 1.67l-3.31 1.43c-5.1 1.91-12.62 1.91-21.34 1.91l-7.69.02c-2.96.02-5.54.04-8.17-.15-.14-2.81-.11-5.66-.08-8.66l.02-3.56c0-6.35.17-14.91.51-25.47 0-1.31.06-4.48.12-7.92v-.38c.07-3.63.14-7.33.13-8.67.1-1.75.17-2.93.2-3.97l1.14-.19.34-.06c.24-.04.43-.08.5-.09l3.03-.02a14.444 14.444 0 0 0 4.94.21 42.78 42.78 0 0 1 5.02-.19 6.119 6.119 0 0 0 1.14-.11 29.753 29.753 0 0 1 24.07 6.11c5.72 4.77 7.78 6.97 8.33 12.88l.21 1.8a26.008 26.008 0 0 1 .26 3.14 4.528 4.528 0 0 0 .05.74 43.994 43.994 0 0 1 .21 5.37 6.373 6.373 0 0 0 .08.98 13.292 13.292 0 0 1 -.07 3.8z"/><path d="m562.65 891.05c-.24-2.57-.49-5.53-.49-8.14l-.02-1.09a8.91 8.91 0 0 0 .27-2.21v-27.08c-.51-9.03-.76-18.35-.76-27.69a55.989 55.989 0 0 0 -.25-6.41c0-.7.05-1.4.1-2.1l.02-.29c.07-1.14.14-2.28.14-3.43v-6.11c0-.66.05-1.28.11-2.09.07-.98.14-1.95.14-3.01v-4.59c0-5.96 0-11.59.25-17.58v-21.4c0-2.6 0-4.47-.89-6.24a5.944 5.944 0 0 0 -5.33-3.31l-.38.02a9.234 9.234 0 0 0 -1.93-.28 6.049 6.049 0 0 0 -3.08.85c-1.58.95-4.25 3.31-4.38 8.21a11.355 11.355 0 0 0 -.3 3.03 40.141 40.141 0 0 0 .25 5.43v6.8c0 .71-.05 1.48-.11 2.35-.07 1.14-.14 2.32-.14 3.5 0 1.81-.06 3.56-.12 5.25v.27c-.07 1.79-.13 3.52-.13 5.19v9.17c0 6.35 0 12.36-.25 18.59v13.76c0 4.7.32 11.06.51 14.01v4.08a20.166 20.166 0 0 0 .16 2.23 12.206 12.206 0 0 1 .1 1.48c.24 3.62.24 7.24.24 11.07v15.38a9.879 9.879 0 0 0 -.25 2.2v1.78c0 2.89.24 5.52.48 8.06l.04.41c.36 6.87.45 12.08.25 15.99v4.84a5.954 5.954 0 0 0 1.75 4.23 9.145 9.145 0 0 0 6.52 3.02 5.8 5.8 0 0 0 1.89-.31c4.44-1.48 6.46-4.92 5.87-9.82v-3.43a45.345 45.345 0 0 0 -.28-14.63z"/><path d="m692.72 753.64a5.831 5.831 0 0 0 -1.42-.69 15.429 15.429 0 0 0 -4.95-.82h-6.88a46.3 46.3 0 0 1 -5.83-.23c-8.67-.79-16.12-.79-24.74-.79-4.78 0-9.68-.22-14.92-.44l-4.18-.07a18.729 18.729 0 0 0 -3.87.26h-.26q-.315-.09-.63-.15c-5.41-1.02-9.52-.2-12.24 2.43a9.607 9.607 0 0 0 -2.81 8.35 12.049 12.049 0 0 0 -.18 1.98l.02 4.35c-.27 3.3-.27 7.71-.27 10.93 0 4.26.17 9.67.52 16.6.24 6.88.5 14 .25 21.36a74.874 74.874 0 0 0 .76 12.95v3.1a5.807 5.807 0 0 0 .12 1.17 19.9 19.9 0 0 1 .06 6.4l-.17 1.81a3.627 3.627 0 0 0 -.05.47 6.06 6.06 0 0 0 -.18 1.58c-.2 2.2-.54 6.48-.54 10.48v1.53a7.705 7.705 0 0 0 .25 2.04 3.7 3.7 0 0 0 .18 1.42 11.717 11.717 0 0 1 .07 1.9l-.03.74c-.25 5.95-.48 11.58-.48 17.34v14.52a26.514 26.514 0 0 0 .19 2.81 7.226 7.226 0 0 1 .06.76v3.06c0 4.4.19 8.25 2.51 10.61 2.31 2.75 6.19 2.75 8.05 2.75h1.53a7.705 7.705 0 0 0 2.04-.25h3.57c1.87 0 4.7 0 7.14-.25h9.91c6.2-.25 12.61-.51 18.61-.51 6.34 0 11.5.23 16.24.47a9.192 9.192 0 0 0 1.94.31c.2.02.37.03.51.05a11.406 11.406 0 0 0 1.95.19c5.63 0 9.08-1.81 10.26-5.38a6 6 0 0 0 .3-1.87 9.168 9.168 0 0 0 -.45-2.59l-.24-.9a6.037 6.037 0 0 0 -1.57-2.78c-2.64-2.64-6.95-2.77-7.79-2.77h-1.05a8.443 8.443 0 0 0 -1.88-.26h-.17a5.91 5.91 0 0 0 -1.56-.25c-9-.25-17.44-.25-24.88-.25h-12.23a15.477 15.477 0 0 0 -2.4.21 2.46 2.46 0 0 1 -.4.04h-2.8c-1.18 0-2.36.07-3.59.15-.79.05-1.55.1-2.26.1h-4.91c-.06-3.56-.06-7.52-.06-12.11v-2.55a4.9 4.9 0 0 0 -.24-1.6c-.02-.27-.02-.59-.01-.98v-.48c0-1.42.05-2.95.11-4.53v-.35c.08-1.98.15-4.02.15-6.07 0-3.7 0-7.19.26-11.21a12.265 12.265 0 0 0 -.26-2.29v-2.55a33.942 33.942 0 0 1 .45-4.51 5.871 5.871 0 0 0 .06-.82l.05-2.23a12.809 12.809 0 0 0 .21-2.13v-3.7h.27c2.24.23 4.69.25 7.07.28 1.56.01 3.12.03 4.59.1 1.37.07 2.74.14 4.25.14l11.75-.02c2.53-.23 4.62-.23 6.84-.23a55.671 55.671 0 0 1 5.58.15 5.012 5.012 0 0 0 1.37.31 7.884 7.884 0 0 0 1.96.31 9.232 9.232 0 0 0 7.78-3.94 6.253 6.253 0 0 0 .7-1.42 9.773 9.773 0 0 0 -.18-6.54c-1.01-2.35-3.42-5.15-9.15-5.16a6.055 6.055 0 0 0 -1.69-.24h-4.84a70.066 70.066 0 0 0 -7.17.25h-7.98l-21.52-.48c-.04-.63-.08-1.22-.14-1.72v-7.16a29.044 29.044 0 0 0 0-6.72c-.09-3.53-.21-6.99-.33-10.44-.23-6.59-.44-12.81-.44-19.22 0-3.47 0-7.05.16-10.66a11.058 11.058 0 0 0 1.48-.18h3.08c.23 0 .49.03.96.08a24.339 24.339 0 0 0 2.61.17h3.31c.84 0 1.67.05 2.69.11 1.26.08 2.58.1 3.89.11a45.864 45.864 0 0 1 5.16.24c1.52.2 2.92.1 4.25.17 1.31.07 2.62.14 4.13.14 4.2 0 9.74.25 14.54.46a59.869 59.869 0 0 0 7.11.3h7.39c6.81 0 8.78-3.76 9.23-6.92a5.971 5.971 0 0 0 .06-.85 8.279 8.279 0 0 0 -3.68-7.27z"/><path d="m815.35 818.11c-.24-3.89-.24-7.63-.24-11.6a121.291 121.291 0 0 0 -.78-16.83 7.75 7.75 0 0 0 -.24-1.53v-1a55.388 55.388 0 0 0 -.56-7.62 6.282 6.282 0 0 0 -.13-.71 55.959 55.959 0 0 0 -3.67-9.68 6.086 6.086 0 0 0 -1.24-1.78l-.3-.27a6.232 6.232 0 0 0 -.46-.68l-1.53-1.94c-1.08-1.62-5.1-7.1-11.49-9.74l-3.19-1.02a5.5 5.5 0 0 0 -.63-.25l-1.98-.66c-3.4-1.48-7.79-2.2-13.41-2.2h-.22a7.164 7.164 0 0 0 -1.61-.25 6.047 6.047 0 0 0 -1.73-.26h-2.17a8.291 8.291 0 0 0 -1.78-.24 110.125 110.125 0 0 0 -12.88-.27h-2.39c-4.47.28-9.09.55-13.15 2.25a6 6 0 0 0 -2.48 1.92l-.76 1.02a6.051 6.051 0 0 0 -1.2 3.59c0 4.67 0 14.39-.25 20.06-.26 5-.26 9.61-.26 14.07v31.58c-.25 5.99-.25 11.49-.25 16.81v3.31a22.7 22.7 0 0 0 .19 2.55 7.024 7.024 0 0 1 .06.76v9.36a5.476 5.476 0 0 1 -.07.65 25.431 25.431 0 0 0 -.19 2.73v2.76c-.25 5.24-.25 10.24-.25 15.08 0 3.14 0 8.4.25 11.21v3.31a8.194 8.194 0 0 0 .25 2.19 9.978 9.978 0 0 0 .25 2.4v1.31a7.666 7.666 0 0 0 -.25 2v5.35a5.952 5.952 0 0 0 2.04 4.5l2.04 1.78a5.887 5.887 0 0 0 4.4 1.46c3.08-.24 6.77-.24 9.74-.24h3.7c4.08.24 8.29.51 12.86.51h4.33a8.132 8.132 0 0 0 2.06-.25 38.308 38.308 0 0 0 5.19-.26c10.95-.16 23.61-7.67 28.82-17.09a5.866 5.866 0 0 0 .32-.67l1.53-3.83a6.137 6.137 0 0 0 .26-.83 12.508 12.508 0 0 0 1.83-4.55l.79-4.01a7.388 7.388 0 0 0 .21-.75l.71-3.33a24.591 24.591 0 0 0 .67-4.83 31.931 31.931 0 0 0 .28-5.07l-.02-11.63a73.4 73.4 0 0 1 .02-10.27v-9.17c0-3.56-.26-6.98-.53-10.24-.25-3-.48-5.83-.5-8.99zm-15.9 29.24c.05.13.06.16-.02 1.06-.06.67-.11 1.38-.11 2.18v12.23a47.343 47.343 0 0 0 .26 5.63 2.389 2.389 0 0 0 .04.63 8.1 8.1 0 0 0 -.3 1.77 4.725 4.725 0 0 1 -.1.63l-.05.31c-.08.48-.18 1.03-.23 1.5a7.5 7.5 0 0 0 -.39 2.24 13.153 13.153 0 0 0 -.73 3.8l-.32.74a5 5 0 0 0 -.3.9c-.07.27-.14.48-.22.73a7.1 7.1 0 0 0 -.21.7l-3.14 7.2c-1.93 4.75-7.22 7.07-11.27 7.23h-.61c-.56 0-1.02.01-1.15.02a5.983 5.983 0 0 0 -2.66-.22 29.075 29.075 0 0 1 -3.28.17 19.306 19.306 0 0 0 -3.78.28h-4.07c-2.38 0-5.19-.22-8.16-.45l-2.95-.1a13.359 13.359 0 0 0 -2.13-.21h-1.92v-5.63c-.25-3.62-.25-6.57-.25-10.3 0-3.28 0-6.68.25-10.7v-34.39c0-16.85.22-31.63.45-47.36l.06-21.2a88.065 88.065 0 0 1 15.55.09l1.14.07a7.092 7.092 0 0 1 1.89.23l.78.16a5.15 5.15 0 0 0 .87.1c4.74.23 8.12.65 11.44 2.18l1.77.65a9.07 9.07 0 0 0 3.94.95 7.638 7.638 0 0 0 1.33.94 8.847 8.847 0 0 0 .74.89l1.24 1.39a8.859 8.859 0 0 0 .82 1.13 10.943 10.943 0 0 0 1.37 2.56 43.2 43.2 0 0 1 2.23 11.14c.25 5.34.5 11.05.5 17.04 0 4.2.26 11.15.51 15.79 0 1.02.07 2.11.15 3.35.05.77.1 1.56.12 2.63.24 3.9.49 7.93.49 12.62v4.59a6.1 6.1 0 0 0 .38 2.11z"/><path d="m935.3 905.15a7.631 7.631 0 0 0 -.8-2.5l-.1-.32a19.967 19.967 0 0 0 -.97-3l-.18-.47a1.636 1.636 0 0 0 -.12-.3l-.26-1.04a5.992 5.992 0 0 0 -.82-1.87 5.176 5.176 0 0 1 -.89-1.93 8 8 0 0 0 -.29-1 236.8 236.8 0 0 0 -8.95-22.76l-3.16-7.89c-1.72-4.47-3.34-8.69-4.8-13.5a5.331 5.331 0 0 0 -.23-.63l-1.32-3.05a5.083 5.083 0 0 0 -.25-.68c-.06-.2-.13-.39-.21-.59a9.829 9.829 0 0 1 -.49-1.51 21.2 21.2 0 0 0 -.73-2.31 23.891 23.891 0 0 0 5.26-2.17 5.965 5.965 0 0 0 1.07-.48 21.085 21.085 0 0 0 5.03-4.4c.43-.47.87-.95 1.32-1.4l1.65-1.64a6.23 6.23 0 0 0 1.19-.94l2.62-2.9a5.075 5.075 0 0 0 .54-.77c2.75-4.59 3.44-10.49 4.18-16.77l.19-1.81a9.11 9.11 0 0 0 .3-2.33v-.57a5.985 5.985 0 0 0 .25-1.73 11.484 11.484 0 0 1 .11-1.25c.07-.65.12-1.26.14-1.68a53.148 53.148 0 0 0 .27-9.04v-1.79a197.907 197.907 0 0 1 -.51-3.77 5.55 5.55 0 0 0 -.08-.82c-.94-5.41-2.36-13.6-7.03-20.13l-1.53-2.29a6.25 6.25 0 0 0 -1.14-1.27l-4.58-3.82a6.663 6.663 0 0 0 -.93-.64l-2.29-1.27a5.619 5.619 0 0 0 -1.01-.44l-1.53-.51a6.021 6.021 0 0 0 -1.21-.24 41.842 41.842 0 0 0 -11.75-2.34c-4.12-.28-8.23-.52-13.13-.52-3.02 0-7.15 0-9.68.26h-10.7a6 6 0 0 0 -1.45.18 7.7 7.7 0 0 0 -5.62 4.55l-.31.61a6 6 0 0 0 -.62 2.22l-.25 3.31a6.025 6.025 0 0 0 .23 2.19v1.13c.25 4.87.25 10.39.25 15.27a7.7 7.7 0 0 0 -.25 1.75v1.02c0 7.72 0 15.7-.25 23.69v7.1a6.874 6.874 0 0 0 -.25 1.82v.56a3.683 3.683 0 0 0 -.1.39 34.965 34.965 0 0 0 -.49 9.27c.04 1.07.08 2.17.08 3.28v11.57c-.25 4.02-.25 7.7-.25 11.6 0 1.73-.06 3.41-.11 5.08v.31c-.08 1.92-.14 3.83-.14 5.82l.02 1.53c-.28 3.31-.28 8.05-.28 11.2v2.04c0 3.26 0 6.63-.26 9.94v.52a2.786 2.786 0 0 0 .04.7 6.064 6.064 0 0 0 -.29 1.85v3.08a49.327 49.327 0 0 0 -.51 6.35v1.57c-.37 10.59.78 15.12 4.43 17.31a5.989 5.989 0 0 0 3.08.86h1.02a5.98 5.98 0 0 0 1.18-.12l1.27-.26a6 6 0 0 0 3.96-2.79 10.647 10.647 0 0 0 1.48-7.86 63.976 63.976 0 0 1 .34-15.61 5.991 5.991 0 0 0 .05-.74v-4.66a6.263 6.263 0 0 0 .25-1.71c0-3.99 0-6.87.25-9.94v-5.86a10.386 10.386 0 0 1 .09-1.12 20.938 20.938 0 0 0 .17-2.45v-2.29c0-.45.04-1.08.09-1.74l.03-.4c.07-1.11.14-2.23.13-2.63a153.908 153.908 0 0 0 .26-15.85v-1.76l.94.03c.86.02 1.68.05 2.5.14a19.868 19.868 0 0 0 2.55.18l3.44-.02c.12.01.26.04.66.11.57.1 1.29.23 2.17.35a32.521 32.521 0 0 0 7.02.28c.11.34.23.67.34.94l.42 1.7a10.093 10.093 0 0 0 .97 2.56l3.49 8.83c1.38 4.14 3.72 10.35 5.5 14.16l1.3 3.11c3.15 7.33 6.04 15.03 8.43 21.53l.94 3.06.84 2.03.61 2a10.252 10.252 0 0 0 1.4 3.64c.06.17.13.41.21.7a5.378 5.378 0 0 0 .63 1.55l.36 1.63a5.593 5.593 0 0 0 .34 1.05 10.137 10.137 0 0 1 .34 1.05 16.994 16.994 0 0 0 2.99 6.14 5.968 5.968 0 0 0 6.17 2.13 14 14 0 0 0 2.75-.96 6.026 6.026 0 0 0 1.15-.76l1.53-1.27a6.05 6.05 0 0 0 1.67-2.24 10.173 10.173 0 0 0 -.9-9.75 5.5 5.5 0 0 0 -.45-.95zm-59.63-111.47c-.05-2.26-.1-4.4.06-7.04v-2.17c.19-1.78.51-5.2.51-8.03 0-1.47-.07-2.75-.14-4.13-.06-1.11-.12-2.22-.12-3.51v-2.18h4.45c2.8-.24 5.92-.24 8.93-.24h2.39c4.29-.03 9.65-.02 13.39.88a6.278 6.278 0 0 0 2.14.91 1.539 1.539 0 0 0 .38.12 6.955 6.955 0 0 0 1.51.58c.11.05.22.09.33.13l1.91 1.54a33.883 33.883 0 0 1 6.61 18.57 11.7 11.7 0 0 0 .25 1.84 170.505 170.505 0 0 1 -1.67 20.92c-.3 1.16-.5 2.2-.66 3.1l-.07.41q-.045.255-.09.48l-1.26 1.63-2.15 2.38c-2.65 3.01-6.79 4.42-14.49 6.29a6.286 6.286 0 0 0 -.7.22 11.024 11.024 0 0 1 -3.01.15l-1.51-.02c-2.18 0-4.06 0-6.59-.23-1.75-.16-3.15-.17-4.39-.18a29.569 29.569 0 0 1 -3.54-.17c-.75-.09-1.58-.13-2.45-.16.02-1.24.02-2.41.02-3.46v-24.71c0-1.28-.03-2.5-.06-3.91z"/><path d="m1067.74 904.76a11.567 11.567 0 0 0 -.81-3.09l-.77-3.86a6.473 6.473 0 0 0 -.26-.93 22.075 22.075 0 0 1 -.89-3.76 6.824 6.824 0 0 0 -.1-1.1l-2.8-15.03c-.04-.22-.1-.44-.16-.66-.92-2.98-1.61-6.43-2.36-10.13l-.73-4.56c-.15-1.33-.43-2.73-.74-4.22-.21-.99-.42-1.98-.53-2.91a5.956 5.956 0 0 0 -.1-.63l-2.54-12.18c-1.14-5.41-2.16-9.89-3.41-14.13l-6.65-24.06-1.45-4.83-5.86-23.43a5.6 5.6 0 0 0 -.56-1.42l-.11-.66a6.408 6.408 0 0 0 -.17-.73l-5.86-19.62a5.96 5.96 0 0 0 -4.69-4.18l-4.34-.77a5.973 5.973 0 0 0 -1.03-.09h-4.59a6.383 6.383 0 0 0 -1.3.14 8.745 8.745 0 0 0 -5.82 1.87c-3.9 3.05-4.62 8.65-4.68 11.49l-2.12 8.73-1.43 5.28a170.6 170.6 0 0 0 -4.52 17.51l-.22 1.03c-.26 1.19-.61 2.81-.81 4.36-2.26 9.26-4.38 20.39-6.43 31.2l-.14.72c-.7 3.68-1.4 7.33-2.09 10.86-.72 3.58-1.65 7.08-2.74 11.18l-3.88 15.28-5.09 24.94a6.259 6.259 0 0 0 -.13 1.23l.03.67a56.6 56.6 0 0 0 -1.09 7.53c-.17 1.66-.32 3.22-.6 4.64a5.129 5.129 0 0 0 -.12 1.01 10.483 10.483 0 0 0 -.24 2.2 5.979 5.979 0 0 0 .85 3.08 8.738 8.738 0 0 0 7.57 4.26 9.016 9.016 0 0 0 8.46-6.15c.06-.24.1-.48.14-.74l.77-6.37a7.2 7.2 0 0 0 .04-.78 5.869 5.869 0 0 0 .25-1.72c0-.44-.02-.87-.05-1.29a5.751 5.751 0 0 0 .5-1.67v-.05a8.19 8.19 0 0 0 .25-1.18l2.19-11.49 1.39-5.85h2.47c10.27 0 19.31-.34 27.62-1.03 6.46-.39 12.9-.64 19.16-.72.9 4.3 2.05 8.99 3.42 13.88l.43 2.35c.15 1.05.3 1.86.46 2.67a5.562 5.562 0 0 0 .24 1.53 5.4 5.4 0 0 0 .1.89l.84 4.43.43 1.7a6.629 6.629 0 0 0 .26 1.04 6.363 6.363 0 0 0 .37 1.22c.14.32.25.62.45 1.12a12.815 12.815 0 0 0 2.86 4.83 5.881 5.881 0 0 0 .91.74 8.585 8.585 0 0 0 6.83 1.44 8.057 8.057 0 0 0 4.88-3.38c1.63-2.15 1.29-4.53 1.04-6.27l-.19-1.44zm-26.06-43.8c-6.98.11-12.66.41-18.74.98-8.11.56-15.58.83-24.02.84 1.1-3.78 2.14-7.53 2.97-11.46 1.41-5.45 2.36-11.03 3.31-16.57l.9-5.24c1.95-13.84 4.96-25.77 8.45-39.58l1.66-6.62 1.56-7.3a6.9 6.9 0 0 0 .29-.7 19.1 19.1 0 0 0 .57-2.2l.2-.54 1.46 4.47.18 1.28a7.592 7.592 0 0 0 .17.8l2 6.99 2.95 11.68c1.21 4.99 2.47 10.15 3.95 15.16l.77 2.78c4.14 14.87 8.41 30.24 11.34 45.23z"/><path d="m1172.35 801.45a6.384 6.384 0 0 0 1.64.68 8.227 8.227 0 0 0 8.22-2.09 6.762 6.762 0 0 0 .56-.64c1.96-2.62 1.96-5.93 1.96-7.92a7.054 7.054 0 0 0 -.25-1.98v-1.58a6.584 6.584 0 0 0 -.32-2 35.3 35.3 0 0 0 -2.34-10.85 7.186 7.186 0 0 0 -.31-1.26 5.557 5.557 0 0 0 -.63-1.58c-.46-.81-.92-1.53-1.45-2.34a27.1 27.1 0 0 1 -1.56-2.66l-.72-1.33c-2.73-5.05-5.82-10.76-12.8-13.39l-.87-.52a4.888 4.888 0 0 0 -.72-.37 21.394 21.394 0 0 0 -6.01-1.63l-1.24-.26c-.7-.15-1.19-.25-1.58-.3a48.99 48.99 0 0 0 -9.06-.83c-4.83 0-7.92.4-10.2 1.29-7.01 1.78-15.86 4.87-22.07 13.05a6.1 6.1 0 0 0 -.52.8 108.341 108.341 0 0 0 -5.93 13.74 28.912 28.912 0 0 0 -1.09 16.04 45.4 45.4 0 0 0 1.87 10.3 5.781 5.781 0 0 0 .25.57l1.44 2.86 2.24 3.73a32.372 32.372 0 0 0 5.33 7.44c1.26 1.26 2.62 2.7 4.15 4.34 4.19 4.46 9.4 10.01 15.21 14.5l1.91 1.68a41.986 41.986 0 0 0 8 7l4.81 3.77.56.55a4.083 4.083 0 0 0 .53.46l4.43 4.45 1.79 2.16a9.386 9.386 0 0 0 1.89 2.38 7.446 7.446 0 0 0 1.25 1.68l1.15 1.33.55.92a5.94 5.94 0 0 0 .9 1.15l.18.18a21.537 21.537 0 0 1 1.7 3.97 6.963 6.963 0 0 0 .21 1.05 8.073 8.073 0 0 0 .28 1.84c.17 7.42-.76 13.3-2.76 17.48-.1.22-.2.46-.33.83l-.05.16a6.038 6.038 0 0 0 -.51.8 19.31 19.31 0 0 1 -6.11 6.63 5.707 5.707 0 0 0 -1.36 1.37 5.335 5.335 0 0 0 -2.08 1.03l-.08.03a36.471 36.471 0 0 1 -11.85.79h-3.13a8.2 8.2 0 0 0 -1.09-.2 6.173 6.173 0 0 0 -1.05-.25 13.692 13.692 0 0 1 -1.83-.42 5.38 5.38 0 0 0 -1.32-.6 7.151 7.151 0 0 0 -.88-.39 4.148 4.148 0 0 0 -.65-.27 19.54 19.54 0 0 1 -8.06-7.89 5.919 5.919 0 0 0 -.94-1.22l-.09-.23a6.633 6.633 0 0 0 -.41-.95c-.02-.07-.04-.15-.06-.22a6.041 6.041 0 0 0 -.28-1.38 23.3 23.3 0 0 1 -.71-7.28l-.02-2.78c-.41-4.95-1.77-8.41-4.05-10.29a7.1 7.1 0 0 0 -5.37-1.53 8.155 8.155 0 0 0 -7.14 6.61 15.638 15.638 0 0 0 -.23 5.2v2.54a6.83 6.83 0 0 0 .26 1.85v.61a48.421 48.421 0 0 0 2.04 10.48 6.034 6.034 0 0 0 .46 1.11 3.181 3.181 0 0 0 .22.62 5.808 5.808 0 0 0 .68 1.65 7.854 7.854 0 0 1 .4.82l.11.25a24.312 24.312 0 0 0 1.87 3.54 8.926 8.926 0 0 0 1.65 2.21 37.089 37.089 0 0 0 8.62 9.02 5.241 5.241 0 0 0 .76.45l2.55 1.28c.21.1.47.2.45.19a36.651 36.651 0 0 0 7.18 3.01l.53.18a8.233 8.233 0 0 0 2.05.35 15.084 15.084 0 0 0 1.65.2 75.872 75.872 0 0 0 7.87.27c6.32 0 11.5-.81 15.66-2.42a6.113 6.113 0 0 0 2.23-.84 5.847 5.847 0 0 0 1.44-.77l3.21-1.69a5.649 5.649 0 0 0 1.51-1.08l1.44-1.27a5.708 5.708 0 0 0 .64-.56l1.37-1.35c2.82-2.74 6.02-5.85 7.9-9.9l1.21-2.45a44.972 44.972 0 0 0 2.93-23.99 6.473 6.473 0 0 0 -.23-1.01 5.685 5.685 0 0 0 -.25-1.27 5.986 5.986 0 0 0 -.11-.72 43.34 43.34 0 0 0 -5.32-13.54 3.38 3.38 0 0 0 -.33-.48l-4.37-5.72-6.18-6.67-1.08-1.51a5.83 5.83 0 0 0 -1.07-1.15l-7.06-5.8c-.83-.7-1.66-1.39-2.48-2.06l-.43-.36c-2.24-1.85-4.36-3.6-6.16-5.4a4.992 4.992 0 0 0 -.49-.44l-1.42-1.13a78.46 78.46 0 0 1 -8.02-7.35l-2.09-2.07a40.964 40.964 0 0 1 -9.41-11.42 5.909 5.909 0 0 0 -.73-1.01 5.618 5.618 0 0 0 -.56-1.31l-1.69-2.91c-1.01-3.28-2.05-9.24-1.87-11.97a33.429 33.429 0 0 1 2.04-6.99l3.08-6.63c2.42-3.8 9.95-7.9 20.78-7.9h.29a6.225 6.225 0 0 0 1.14.23 28.445 28.445 0 0 1 5.88 1.17l1.32.46a6.153 6.153 0 0 0 .92.57l.18.06a5.737 5.737 0 0 0 .76.53c3.08 1.79 5.26 4.6 7.33 9.48l1.05 2.06 1.57 4.22a61.707 61.707 0 0 1 1.32 7.85v1.36a8.656 8.656 0 0 0 3.92 9.12z"/></g></g></svg>