<svg height="380" viewBox="0 0 380 380" width="380" xmlns="http://www.w3.org/2000/svg" xmlns:xlink="http://www.w3.org/1999/xlink"><clipPath id="a"><path d="m0 0h315.508v344.391h-315.508z"/></clipPath><clipPath id="b"><path d="m0 0h380v380h-380z"/></clipPath><g clip-path="url(#b)"><g clip-path="url(#a)" fill="#f0d861" transform="translate(32.246 17.805)"><path d="m1060.96 285.979c18.43 9.791 37.551 16.725 58.848 15.907 4.043-.155 8.123.313 13.323.592 6.971-.45 13.958-.621 20.934-.95-.047-.155-.1-.3-.15-.46a193.646 193.646 0 0 0 54.239-15.878c9.57-4.411 15.954-11.514 18.99-21.212 6.476-20.689 5.335-40.628-7.6-58.942-1.263-1.789-2.183-3.817-3.4-5.64-9.086-13.589-20.339-24.6-36.133-30.156-25.689-9.033-51.555-8.768-77.05.089-12.587 4.372-24.48 10.751-36.675 16.249-11.864 5.348-18.64 15.094-23.609 26.674-8.186 19.079-4.245 37.761 1.884 56.146 2.631 7.9 8.828 13.558 16.406 17.582" transform="translate(-915.489 -84.836)"/><path d="m1240.365 234.676c-4.829-2.77-7.481-4.022-21.807-6.847-16.612-3.272-33.376-5.816-50.13-8.3-5.011-.742-10.225.037-15.317-.289-21.326-1.371-42.665-2.6-63.95-4.461-15.428-1.344-29.7 5.506-45.49 4.677-10.525-.552-23.141 6.061-31.866 13.121-8.149 6.595-13.026 17.225-18.845 26.132-.526 10.154-1.308 20.294-1.513 30.44 4.33 16.662 15.1 27.463 27.8 36.893 22.149 16.451 48.031 17.393 74.1 18.261 29.5.981 57.75-6.905 86.529-11.093 24.577-3.575 45.652-14.834 64.5-30.206 8.82-7.192 18-15.41 17.956-28.323-.058-16.9-5.3-31.4-21.965-40.008" transform="translate(-991.446 .003)"/><path d="m1094.532 201.934c2.97 3.454 7.868 4.793 12.1 5.958 7.821 2.16 15.649 4.43 23.748 4.911 20.179-2.2 28.386-10.93 32.24-31.64 3.178-17.069-10.2-36.964-30.74-45.729-16.078-6.86-33.163 1.015-48.257 22.244-9.357 13.161-6.8 24.488 10.227 43.88a1.079 1.079 0 0 1 .684.376" transform="translate(-849.901 -133.023)"/><path d="m1103.5 211.912s-8.294-14.336-13.189-17.361c-5.95-3.677-15.8-5.54-17.611-6.063a26.618 26.618 0 0 0 -3.707-.871c-1.339-.184-2.714-.187-4.064-.239-1.939-.071-3.88-.126-5.821-.176-4.446.35-8.891.684-13.318 1.2-2.562.295-5.1.708-7.66 1.026-2.426.3-4.861.558-7.258 1.023-4.7.913-13.187 4.782-13.187 4.782a1.579 1.579 0 0 1 -.171.018c-7.5 4.243-18.024 18.84-18.024 18.84s-11.059 31.939 11.619 35.909c18.406 3.225 49.135 5.045 68.17.7 28.667-6.537 24.224-38.8 24.224-38.8" transform="translate(-982.725 -44.682)"/></g></g></svg>