<svg height="380" viewBox="0 0 380 380" width="380" xmlns="http://www.w3.org/2000/svg" xmlns:xlink="http://www.w3.org/1999/xlink"><clipPath id="a"><path d="m0 0h331.703v367.734h-331.703z"/></clipPath><clipPath id="b"><path d="m0 0h380v380h-380z"/></clipPath><g clip-path="url(#b)"><g clip-path="url(#a)" fill="#043c38" transform="translate(24 6)"><path d="m1009.187 88.218c8.349 3.178 14.752 10.24 23.8 12.137 1.6.335 3.506 1.708 4.677.256 1.465-1.816-.968-2.8-1.854-4.016-4.277-5.868-8.864-11.525-12.869-17.57-2.357-3.557-5.806-8.257-4.129-11.807 1.78-3.767 7.6-3.2 11.943-3.911 4.759-.779 8.749 2.5 13.2 1.816 9.655-1.473 18.456 2.369 27.248 4.843 5.278 1.488 5.242-.451 5.286-3.765.069-5.478-.374-10.962-.274-16.438.1-5.727-1.3-7.435-6.042-4.674-4.928 2.874-10.122 2.592-15.172 3.691-10.578 2.3-21.224 4.287-32.168 3.386-2.1-.174-4.667.041-5.473-2.09-.825-2.182 1.255-3.752 2.835-5.127 7.343-6.4 14.471-13.064 24.175-18.76-5.788-.435-9.817 1.237-13.73 1.483-10.831.684-18.568 7.883-27.934 11.489a5.043 5.043 0 0 0 -2.6 2.561c-3.038 7.755-5.891 15.608-16.52 15.751 7.665.661 8.393 6.18 10.388 12.224 2.485 7.532 6.559 15.224 15.219 18.52" transform="translate(-744.793 -26.117)"/><path d="m929.3 139.166c.835.046 1.675.013 2.513.036 1.152.031 2.354-.32 2.231-1.573-.369-3.773 1.409-7.4.5-11.215-.958-4.052-2.986-5.022-6.841-3.294-9.6 4.3-12.537 2.326-12.286-7.991.021-.827.236-1.649.287-2.479.6-9.451 3.855-18.832.277-29.891-7.5 10.629-13.1 20.838-16.266 32.394-1.4 5.1-2.174 10.7-7.566 13.769-3 1.708-1.9 3.3.6 4.341 3.573 1.488 5.12 4.462 6.82 7.722 3.122 5.983 4.316 12.606 6.951 18.691 3.463 7.991 5.535 16.945 14.222 22.986-1.619-10.59-3.353-20.154-4.492-29.786-1.716-14.517-1.539-14.535 13.049-13.71" transform="translate(-890.346 62.31)"/><path d="m1056.033 141.83a182.833 182.833 0 0 0 -41.626 3.829c-13.418 2.93-28.076 5.422-34.048 21.288-.648 1.716-3.015 3.719-5.934 4.1-2.646.343-5.22 1.639-7.686 2.807-1.352.64-2.886 1.55-2.1 3.709.745 2.052 2.072.927 3.34.922 8.808-.02 16.115 1.414 22.756 9.236 8.739 10.291 20.8 16.891 34.207 20.786 8.477 2.464 17.208 2.3 25.676 4.19 2.32.41 5.494 1.862 6.26-1.355.817-3.422-3.081-2.315-4.83-3.329-3.16-1.824-6.106-4.2-9.471-5.448-7.13-2.651-11.215-9.873-18.635-11.925l-.059-.044a3.553 3.553 0 0 0 .5-1.291 3.011 3.011 0 0 0 .033-.394 2.6 2.6 0 0 0 -.026-.376 3.1 3.1 0 0 0 -.261-.873c-.013-.031-.023-.064-.038-.1a28.278 28.278 0 0 0 -1.813-2.651c9.384-2.1 18.528-1.035 27.655.546q1.683.288 3.363.6c4.659.85 9.323 1.752 14.017 2.356-3.383-2.81-6.59-5.632-10.929-6.726-1.206-.3-3.045-.743-2.653-2.5.182-.817 1.6-1.452 2.561-1.987 2.723-1.516 6.6-1.434 8.144-6.019-13.433 2.4-26.27 1.542-39.081 1.7a18.665 18.665 0 0 1 -2.259-.1c-3.032-.353-5.02-1.736-5.148-5.714 2.059-1.242 4.485-1.324 6.721-2.208a8.36 8.36 0 0 0 2.154-1.227c9.133-7.3 20.361-11.016 30.237-17.088 1.459-.9 4.221-.743 3.7-3.171-.492-2.3-3.01-1.516-4.723-1.542" transform="translate(-774.7 154.358)"/><path d="m1108.839 233.6c-11.914-12.724-24.172-25.138-35.756-38.151-8.513-9.561-16.181-19.872-24.2-29.871-.755-.943-1.316-2.039-2.507-3.913 4.057.94 7.284 1.5 10.4 2.438q21.744 6.531 43.432 13.262c1.849.574 3.524 1.7 5.348 2.379a4.009 4.009 0 0 0 2.73.146c.433-.187.582-1.521.507-2.305q-.518-5.49-1.045-10.977a58.461 58.461 0 0 0 -3.657-7.858c-2.126-3.89-4.572-7.947-4.328-12.55.161-3.061 1.547-5.737 2.64-8.534a25.416 25.416 0 0 0 1.9-6.574l-.031-.3a23.257 23.257 0 0 0 -.415-3.017 2.3 2.3 0 0 0 -.443-.52 4.574 4.574 0 0 0 -3.578-.584.624.624 0 0 1 -.674-.794c-.172 0-.333 0-.515 0-7.594-.041-15.188-.441-22.776-.336-11.077.151-22.149.633-33.223.943-2.451.069-4.907.01-8.4.01 12.555-21.852 21.7-45.128 36.048-65.712a.517.517 0 0 1 .115-.579 8.528 8.528 0 0 0 2.328-6.321c-.223-2.349-2.238-3.1-4.377-3.327-1.468-.023-2.93-.038-4.392-.01-2.853.146-5.7.61-8.552.625a.524.524 0 0 1 -.354-.133 135.08 135.08 0 0 0 -23.183 4.08c-13.252 3.542-22.866 11.769-31.149 22.3-11.292 14.366-18.259 30.957-25.6 47.4a4.436 4.436 0 0 1 -3.171 2.323 105.666 105.666 0 0 1 -13.346-.817c-5.112-.658-10.145-1.388-14.952 1.219-.763.415-1.8.681-2.218 1.332-3.414 5.281-8.488 6.836-14.652 6.108-.069.374-.141.748-.21 1.119 2.231 1.734 4.464 3.465 6.826 5.3l-6.126 4.6.284 1.089a49.761 49.761 0 0 1 7.151.464 7.546 7.546 0 0 1 4.246 2.3c7.945 10.227 17.764 17.733 30.319 21.314 12.831 3.66 22.715 11.5 32.168 20.658 7.537 7.3 16.373 13.328 24.971 19.444a180.787 180.787 0 0 0 45.228 23.555 124.674 124.674 0 0 0 36.14 6.884c2.046.087 4.118-.394 7.1-.709-2.351-2.892-4.064-5.276-6.055-7.4" transform="translate(-833.771 11.988)"/></g></g></svg>