<svg height="380" viewBox="0 0 380 380" width="380" xmlns="http://www.w3.org/2000/svg" xmlns:xlink="http://www.w3.org/1999/xlink"><clipPath id="a"><path d="m0 0h337.815v451.582h-337.815z"/></clipPath><clipPath id="b"><path d="m0 0h380v380h-380z"/></clipPath><g clip-path="url(#b)"><g clip-path="url(#a)" fill="#f0d861" transform="translate(21.092 16.925)"><path d="m1031.537 430.641a18.056 18.056 0 0 0 11.587-6.81c2.184-2.855 3.453-6.287 5.255-9.4 2.536-4.377 6.091-8.058 9.235-12.023 5.784-7.285 10.191-15.545 14.565-23.754-1.357 5.463-.2 11.364-1.914 16.725-1.167 3.667-3.585 6.786-6.052 9.74a175.081 175.081 0 0 1 -33.642 30.935" transform="translate(-772.49 -200.245)"/><path d="m1059.227 435.927c-10.739-10.681-20.358-22.425-29.96-34.141-5.36-6.545-10.91-13.5-12.318-21.835 5.7 2.975 11.575 6.1 15.539 11.163 2.3 2.945 3.841 6.41 5.965 9.484 2.022 2.921 4.542 5.454 6.783 8.206 5.6 6.9 9.349 15.079 13.04 23.165" transform="translate(-799.845 -197.647)"/><path d="m1123.012 769.644c.6-.295-1.624-.427-2.274-.569s-6.963-56.557-7.024-57.218c-1.095-12.282-2.193-24.627-1.321-36.927.617-8.717 2.22-17.5.881-26.137-1.134-7.328-4.332-14.153-6.518-21.24a122.163 122.163 0 0 1 -3.387-14.739c-6.166-34.824-1.618-67.617-.592-102.438q.13-4.467.265-8.931c.391-13.307.761-26.834-2.674-39.7l.635-.46a35.755 35.755 0 0 1 -15.142-11.827 41.012 41.012 0 0 1 -3.481-5.7 48.48 48.48 0 0 1 -5.116-18.244l-.782-.565c-5.733-2.322-12.137-2.491-17.94-4.626a72.956 72.956 0 0 1 -8.2-3.94c-13.238-6.822-27.656-10.994-41.95-15.172-2.244-.659-4.684-1.459-5.926-3.438s-.126-5.366 2.208-5.255q-4.03-2.527-8.056-5.05c-1.315-.824-2.779-2.536-1.705-3.655l.283.358c7.192-2.99 15.32.229 22.428 3.417q8.993 4.029 17.982 8.062c9.352 4.19 18.785 8.41 28.8 10.6-.1-2.473-2.088-4.509-4.3-5.616s-4.7-1.534-7.029-2.367c-7.276-2.6-12.526-8.94-19.2-12.844-6.834-4-15.422-5.64-20.346-11.846a17.462 17.462 0 0 0 4.28-1.047q-4.093-10.017-8.188-20.036c4.452.129 8.471 2.551 12.258 4.9q4.972 3.091 9.95 6.179c6.783 4.211 13.7 8.537 18.725 14.739a346.251 346.251 0 0 1 -17.209-33.467c-.842-1.886-1.685-3.962-1.158-5.959.683-2.572 3.336-4.022 5.736-5.174a2.684 2.684 0 0 1 1.967-.373 2.654 2.654 0 0 1 1.062.881q2.711 3.213 5.424 6.428a7.33 7.33 0 0 1 7.778-3.859c2.743.542 4.9 2.614 6.786 4.674a94.7 94.7 0 0 1 7.406 9.169q-1.742-8.505-3.486-17.013a7.4 7.4 0 0 1 .009-4.419c.887-2.03 3.5-2.837 5.658-2.328a12.4 12.4 0 0 1 5.517 3.552 59.554 59.554 0 0 1 16.141 27.9c-1.225-9.147.947-18.785.057-28.107a20.656 20.656 0 0 1 -.154-5.357 5.281 5.281 0 0 1 2.984-4.178c2.722-1.041 5.535 1.257 7.316 3.561 8.031 10.378 10.122 24.3 9.081 37.384l.25-1.02q1.164-6.317 2.331-12.631c1.564-8.453 3.158-17.013 6.8-24.8.767-1.642 1.847-3.417 3.625-3.772 2.223-.445 4.175 1.6 5.1 3.67 1.8 3.995 1.628 8.57 1.255 12.934a171.851 171.851 0 0 1 -4.5 27.045l.734-1.206c.307-8.434 6.807-15.344 8.955-23.508.833-3.161 1.008-6.5 2.2-9.544a15.138 15.138 0 0 1 6.413-7.466 3.455 3.455 0 0 1 2.133-.614c1.074.15 1.8 1.14 2.394 2.045 1.332 2.021 2.714 4.178 2.807 6.6a13.426 13.426 0 0 1 -.581 3.766q-3.194 12.6-6.392 25.2c3.183-6.927 7.893-13.055 12.576-19.089 1.8-2.316 3.694-4.714 6.347-5.959 1.261-.589 2.894-.839 3.934.081a4.3 4.3 0 0 1 1 3.342 41.317 41.317 0 0 1 -.454 5.745 42.015 42.015 0 0 1 -11.262 22.81l1.339-.914a76.707 76.707 0 0 0 13.073-17.874 13.3 13.3 0 0 1 2.8-4.082 4.061 4.061 0 0 1 4.6-.71c2.073 1.275 1.751 4.473.451 6.53s-3.3 3.7-4.079 6.01a8.4 8.4 0 0 1 3.851-2.3c1.492-.262 3.293.611 3.456 2.118a4.208 4.208 0 0 1 -1.049 2.71l-10.541 15.169c-3.985 5.739-8 11.512-12.926 16.466a28.793 28.793 0 0 0 -3.281 3.6 37.657 37.657 0 0 0 -2.178 3.9c-5.267 9.812-15.3 15.976-25.135 21.246q.965 8.627 1.934 17.254c.343 3.056.677 6.221-.24 9.159-1.135 3.64-4.019 6.422-6.8 9.027-2.677 2.506-5.451 5.039-8.8 6.5q-1.809 36.43-5.824 72.707l.274 7.276-.46 4.47c-1.564 24.212-.89 35 .815 59.2a23.481 23.481 0 0 0 1.206 6.906 47.026 47.026 0 0 0 2.842 5.243 43.564 43.564 0 0 1 3.534 9.809c7.77 29.472 15.263 116.209 10.119 146.25" transform="translate(-844.836 -319.344)"/><path d="m999.451 474.631a18.206 18.206 0 0 1 -6.66-1.9c-2-1.182-3.58-3.384-3.318-5.694a4.32 4.32 0 0 0 .075-1.318 2.974 2.974 0 0 0 -1.417-1.651 174.68 174.68 0 0 1 -20.569-16.815l3.583-1.991a165.649 165.649 0 0 0 -18.427-19.089 10.122 10.122 0 0 1 -3.026-3.634 11.079 11.079 0 0 1 -.532-2.59 37.829 37.829 0 0 0 -4.386-13.178 6.418 6.418 0 0 1 8.386 2.349q-.42-5.081-.842-10.158a4.9 4.9 0 0 1 .15-2.184c.587-1.495 2.554-2.033 4.091-1.57a9.768 9.768 0 0 1 3.869 2.792c1.657-3.029-1.558-7.436 1.344-9.908a4.433 4.433 0 0 1 5.068-.328 32.447 32.447 0 0 1 11.112 10.721q.338-7.246.68-14.49a4.272 4.272 0 0 1 .821-2.828 3.467 3.467 0 0 1 3.11-.695c5.763.99 8.853 7.252 10.534 12.853s3.345 11.978 8.441 14.845a97.173 97.173 0 0 1 2.882-38.052 4.12 4.12 0 0 1 3.7-3.059c3.15-.126 4.01 3.649 4.082 6.533.069 2.7.731 6.167 3.393 6.606l4.431-14.9a4.115 4.115 0 0 1 7.517-.872l4.307 7.529c2.773-1.718 3.549-5.414 5.219-8.11a5.555 5.555 0 0 1 9.187-.289l.027.039c10.612 14.718 6.286 39.724 3.582 56.319 6.088-6.5 12.354-13.292 15.094-21.766a71.062 71.062 0 0 1 2.223-7.012c.866-1.955 2.105-3.718 3.131-5.595a28.662 28.662 0 0 0 3.342-10.636c.256-2.373.235-4.849 1.246-7.009s3.51-3.886 5.745-3.053a4.738 4.738 0 0 1 2.677 4.611 13.913 13.913 0 0 1 -1.642 5.4c2.105-1.636 2.824-4.431 3.989-6.828s3.531-4.771 6.115-4.115c1.856.472 3 2.352 3.562 4.187 1.7 5.568-.208 11.563-2.5 16.914s-5.05 10.754-5.1 16.577a82.5 82.5 0 0 0 14.932-9.962 64.479 64.479 0 0 1 6.5-5.171 23.312 23.312 0 0 1 7.159-3.038c2.442-.578 5.534-.493 6.819 1.66a5.616 5.616 0 0 1 .048 4.644c-2.292 6.606-8.817 10.555-14.15 15.07-7.2 6.088-12.739 13.918-19.768 20.2.144-.737.285-1.474.43-2.211a112.544 112.544 0 0 1 -7.186 12.925c5.243-5.372 14.487-4.605 20.148-9.535 3.116-2.716 4.7-6.8 7.511-9.827 4.046-4.365 10.122-6.085 15.874-7.619 2.448 1.943 2.794 5.694 1.621 8.588s-3.528 5.129-5.859 7.21a162.6 162.6 0 0 1 -25.144 18.743c5.98-3.1 13.253-1.958 19.748-3.736 3.065-.839 6-2.34 9.177-2.46s6.8 1.817 7.018 4.984c.193 2.734-2.265 5.041-4.894 5.808s-5.433.424-8.17.412c-19-.1-34.869 15.518-53.75 17.6-3.436.379-7.186.394-9.893 2.542a19.041 19.041 0 0 1 -2.858 2.343c-1.9.978-4.193.37-6.287-.075a37.438 37.438 0 0 0 -10.278-.734 11.453 11.453 0 0 0 -3.327.614 20.986 20.986 0 0 0 -3.2 1.826c-9.126 5.532-20.614 3.736-30.519 2.244" transform="translate(-944.774 -235.187)"/><path d="m970.243 404.94a8.889 8.889 0 0 0 .547 8.2c1.393 2.491 3.829 11.244 6.137 12.926 7.911 5.757 10.66 2.512 20.4 3.447 1.985.189 4.133.232 5.793-.869a8.282 8.282 0 0 0 2.665-3.552c4.247-9.12 3.609-19.66 2.885-29.692" transform="translate(-895.175 -166.621)"/><path d="m989.021 597.595c.036-18.072.072 8.236.109-9.836.024-12.438.036-25.005-2.768-37.122-1.579-6.825-3.952-13.461-5.258-20.349-1.384-7.292.313-12.616.785-19.633.448-6.669-1.759-14.381-2.144-21.167q-.587-10.328-.283-20.68c.252-8.6.969-17.2.424-25.785-.809-12.769-4.391-25.312-4.277-38.106l8.54 2.647q1.213 29.265 2.469 58.527c.785 18.295-.054 37.525 2.253 55.624 5.39 42.314 9.8 32.971 5.57 75.417" transform="translate(-882.865 -147.517)"/><path d="m980.365 475c5.047-.232 10.552-.644 14.249-4.088 2.085-1.943 3.309-4.617 4.479-7.216 3.835-8.519 7.764-17.714 6.049-26.9-.418-2.235-1.167-4.494-.758-6.732s2.584-4.374 4.759-3.709c-.668 2.163.346 4.431 1.1 6.564 4.608 13.025-.556 27.794-9.138 38.62a22.5 22.5 0 0 1 -5.089 5c-4.966 3.264-11.389 2.906-17.314 2.427" transform="translate(-876.646 -104.706)"/><path d="m995.313 455.79c-2.87-4.771-9.379-8.672-13.3-12.931a55.676 55.676 0 0 1 -7.09-10.429l-5.339-9.316c-1.516-2.653-2.812-6.236-.021-8.107.451 3.8 3.595 6.994 6.588 9.963 8.585 8.522 14.468 15.013 19.167 25.3" transform="translate(-898.301 -127.254)"/></g></g></svg>