<svg height="380" viewBox="0 0 380 380" width="380" xmlns="http://www.w3.org/2000/svg" xmlns:xlink="http://www.w3.org/1999/xlink"><clipPath id="a"><path d="m0 0h321.541v380h-321.541z"/></clipPath><clipPath id="b"><path d="m0 0h380v380h-380z"/></clipPath><g clip-path="url(#b)"><g clip-path="url(#a)" fill="#043c38" transform="translate(29)"><path d="m1182.267 303c-27.4 33.945-37.179 79.983-25.847 121.732 10.609 42.406 27.059 81.682 42.823 122.338 10.441 27.452 20.691 49.433 37.014 84.033h-6.483c-16.681-24.511-30.269-50.726-42.574-77.588-12.37-26.784-20.928-55.158-29.809-83.359-8.45-28.418-16.975-58.316-13.193-88.308 3.547-29.7 16.27-58.359 36.9-79.98l1.169 1.134" transform="translate(-947.538 -252.814)"/><path d="m1254.127 349.468c-20.041 31.08-39.776 62.826-54.187 96.9-15.193 35.926-29.906 72.139-38.64 105.243h-9.259c3.149-18.707 7.936-41.392 13.32-59.306 4.232-13.5 8.32-27.027 14.468-39.884a513.191 513.191 0 0 1 37.663-60.191c11.128-15.125 22.793-29.819 35.355-43.765l1.28 1" transform="translate(-932.586 -173.328)"/><path d="m1241.478 302.441c-10.23 40.869-20.99 81.587-34.357 121.612-2.281 6.7-4.7 13.355-7.546 20.036-3.073 6.8-5.955 12.108-8.234 18.94-9.359 25.948-14.667 53.648-23.074 80.031-6.085 19.841-10.441 42.763-20.558 87.824h-8.03c-.349-3.8-.035 3.585.162 0 4.481-52.983 19.44-123.466 39.811-172.466 2.479-6.366 6.51-13.29 9.516-19.11 2.944-6.077 5.631-12.473 8.277-18.88 15.62-38.873 28.978-78.722 42.469-118.439z" transform="translate(-953.939 -252.599)"/><path d="m1202.5 284.618c-30.915 55.261-52.956 116.434-62.138 179.043-5.62 43.28-10.211 88.625-17.86 131.794-3.2 19.724-4.31 37.1-6.9 66.9l-8.647-.341c-1.307-16.183 4.53-51.949 5.89-67.94 2.757-32.414 4.086-53.194 9.094-84.442 4.237-31.565 9-64.574 18.558-94.959a516.354 516.354 0 0 1 36.4-89.347 429.689 429.689 0 0 1 24.238-41.592z" transform="translate(-1009.814 -283.733)"/><path d="m1072.328 333.071c22.73 34.533 54.611 65.653 67.58 105.127 15.863 48.278 10.116 106.78-.687 141.386l-10.117-1.718c13.793-60.123 6.55-95.159 3.219-112.77-9.656-51.037-43.029-94.989-61.392-131.185l1.4-.839" transform="translate(-1070.932 -199.583)"/><path d="m1139.162 344.375c2.519 33.426 4.708 70.1 6.207 103.712.389 8.645.8 24.716 1.391 33.361 1.174 17.335 2.765 68.492.46 77.136h-8.669c-6.388-25.479-8.78-58.391-7.627-84.534 1.058-15.008 1.862-36.613 2.392-51.86 1.172-25.122 2.549-52.831 4.218-77.807l1.629-.008" transform="translate(-969.083 -180.302)"/><path d="m1081.111 305.643c21.067 18.144 37.487 41.148 49.979 65.943 10.844 21.553 20.017 54.988 27.844 78.032 4.159 13.074 8.609 26.061 12.912 39.092 8.585 26.1 30.379 122.118 31.865 135.942h-6.624c-11.721-25.046-20.9-65.786-29.492-91.95-8.647-26.04-14.248-52.931-21.2-79.431l-10.568-39.7c-3.477-13.2-6.91-26.086-12.195-38.624a222.408 222.408 0 0 0 -30.258-52.655 157.159 157.159 0 0 0 -13.328-15.422z" transform="translate(-1055.393 -246.367)"/></g></g></svg>