<svg height="158.573" viewBox="0 0 487.757 158.573" width="487.757" xmlns="http://www.w3.org/2000/svg"><g fill="#fff" transform="translate(-817.483 -631.902)"><g><path d="m837.957 750.75-.1-.537c-3.468-18.33-12.165-37.193-20.372-48.9v85.469a3.7 3.7 0 0 0 3.7 3.7h16.906c3.543-20.34 1.197-32.723-.134-39.732z"/><path d="m908.421 735.4-.928-2.958c-3.37-11.327-7.552-25.389-5.81-39.2a62.9 62.9 0 0 1 16.552-35.842l1.317-1.38 3.112 3.024-1.082 1.341a57.761 57.761 0 0 0 -10.882 51.242c1.185 4.736 2.543 9.347 4.005 13.908.812-1.951 1.9-4 2.882-5.837.371-.694.733-1.368 1.064-2.011 1.254-2.588 2.433-5.4 3.532-8.062 6.341-15.781 11.923-32.233 17.322-48.144l.585-1.723-37-20.351c-13.5 24.327-22.629 50.751-26.4 76.474-.676 5.2-1.334 10.614-1.97 15.847-.7 5.766-1.416 11.613-2.184 17.464 3.025 11.2 7.247 29.356 9.771 41.283h5.014a211.806 211.806 0 0 1 -.82-25.438c.313-6.4.551-15.406.724-22.536.317-9.792.748-22.476 1.279-33.871l.084-1.789 4.09-.031.095 1.8c.757 14.406 1.425 30.435 1.882 45.132.041 1.327.084 3.056.129 4.9.082 3.355.175 7.157.292 9.569.194 4.126.471 14.075.5 22.255h2.663a298.622 298.622 0 0 1 11.413-51.2q-.625-1.937-1.231-3.866z"/><path d="m868.679 774.711c-.762 5-1.232 9.741-1.753 15.764h6.412c-1.587-4.915-3.062-10.119-4.439-14.984-.074-.262-.147-.52-.22-.78z"/><path d="m852.655 690.97c3.539 7.035 6.654 16.853 9.4 25.515.984 3.1 1.913 6.03 2.8 8.654.339 1.065.691 2.129 1.038 3.194 1.7-11.963 3.718-23.617 7.169-34.592a227.3 227.3 0 0 1 15.954-39.141 190.325 190.325 0 0 1 10.07-17.39l-8.816-4.848a3.692 3.692 0 0 0 -3.544-.01l-55.44 30.09a94.541 94.541 0 0 1 21.369 28.528z"/><path d="m926.591 721.374c-.394.873-.765 1.657-1.125 2.418a49 49 0 0 0 -2.4 5.674c-1.245 3.45-2.325 7-3.331 10.57 2.06 5.545 4.238 11.1 6.462 16.769l.013.036a224.752 224.752 0 0 1 15.973-25.4c5.346-7.266 10.412-13.538 15.5-19.182l.9-1.005v-39.136a3.694 3.694 0 0 0 -1.916-3.239l-12.406-6.824c-4.076 16.194-8.64 33.407-14.336 50.466-1.177 3.464-2.236 6.274-3.334 8.853z"/><path d="m860.966 772.149c.17-2 .328-3.892.479-5.713.359-4.332.69-8.3 1.076-12.252-1.478-5.24-2.778-10.518-4.046-15.682-.862-3.51-1.754-7.14-2.685-10.687l-4.59-17.253a122.309 122.309 0 0 0 -5.217-16.546 94.414 94.414 0 0 0 -12.908-22.468 65.422 65.422 0 0 0 -5.636-6.526l-.32-.319-7.7 4.18a3.7 3.7 0 0 0 -1.934 3.249v21.012c4.51 3.993 9.461 10.075 14.227 17.527a123.414 123.414 0 0 1 13.1 26.906c5.578 16.978 5.221 37.219 2.14 52.9h11.918c.337-3.434.779-7.014 1.178-10.25.383-3.098.743-6.022.918-8.078z"/><path d="m919.6 774.368c.461-1.473.927-2.959 1.41-4.448-.156-.34-.313-.674-.47-1.018-1.9-4.111-3.6-8.327-5.167-12.587-.73 2.655-1.5 5.312-2.328 7.923-1.888 6.155-3.427 13.188-5.758 23.833-.17.779-.347 1.584-.526 2.4h8.738c1.172-5.522 2.459-10.69 3.741-14.957z"/><path d="m931.856 771.236c2.541 6.236 5.23 12.241 8.48 19.239h14.551a3.7 3.7 0 0 0 3.7-3.7v-67.668c-7.554 11.835-15.136 24.414-20.763 37.72-1.956 4.619-3.985 9.468-5.968 14.409z"/><path d="m924.707 790.475h6.769c-1.377-2.419-2.748-4.932-4.12-7.567-.93 2.533-1.807 5.057-2.649 7.567z"/></g><g><path d="m999.6 724.865v-40.865h4.495v40.861zm2.977-14.885 1.285-4.027h11.441a20.648 20.648 0 0 0 6.771-.963 8.221 8.221 0 0 0 4.145-2.948 8.4 8.4 0 0 0 1.4-4.962 7.811 7.811 0 0 0 -3.153-6.771q-3.151-2.277-9.106-2.277h-11.5l-.817-4.028h12.374a24.039 24.039 0 0 1 9.048 1.518 12.768 12.768 0 0 1 5.721 18.563 12.09 12.09 0 0 1 -5.749 4.407 24.906 24.906 0 0 1 -9.136 1.488zm24.109 14.885-13.6-15.176 5.137-.7 14.184 15.877z"/><path d="m1053.948 725.391a17.249 17.249 0 0 1 -8.552-2.1 15.165 15.165 0 0 1 -5.9-5.837 16.645 16.645 0 0 1 -2.131-8.406 17.255 17.255 0 0 1 2.014-8.376 14.587 14.587 0 0 1 5.692-5.808 16.632 16.632 0 0 1 8.4-2.1 14.848 14.848 0 0 1 7.617 1.956 13.43 13.43 0 0 1 5.2 5.429 16.767 16.767 0 0 1 1.839 7.967c0 .39-.02.788-.059 1.2s-.078.886-.116 1.43h-26.094a11.727 11.727 0 0 0 1.927 5.575 11.089 11.089 0 0 0 4.32 3.765 13.383 13.383 0 0 0 6.07 1.343 13.612 13.612 0 0 0 5.283-.964 11.919 11.919 0 0 0 4.116-2.889l2.8 2.568a16.373 16.373 0 0 1 -5.458 3.882 17.178 17.178 0 0 1 -6.968 1.365zm9.865-18.446a12.415 12.415 0 0 0 -1.606-5.516 9.2 9.2 0 0 0 -3.618-3.5 10.713 10.713 0 0 0 -5.108-1.2 12.077 12.077 0 0 0 -5.633 1.284 10.588 10.588 0 0 0 -4.027 3.619 11.984 11.984 0 0 0 -1.9 5.312z"/><path d="m1085.7 725.391a23.024 23.024 0 0 1 -7.092-1.138 21.494 21.494 0 0 1 -6.1-3.007l1.869-3.619a21.452 21.452 0 0 0 5.6 2.773 19.25 19.25 0 0 0 5.954.963 15.6 15.6 0 0 0 4.465-.554 5.8 5.8 0 0 0 2.831-1.722 4.266 4.266 0 0 0 .993-2.861 3.736 3.736 0 0 0 -.847-2.51 6.307 6.307 0 0 0 -2.743-1.663 37.569 37.569 0 0 0 -5.342-1.314 32.76 32.76 0 0 1 -7-2.043 7.966 7.966 0 0 1 -3.62-2.86 7.716 7.716 0 0 1 -1.05-4.145 8.241 8.241 0 0 1 1.372-4.757 8.48 8.48 0 0 1 4-3.065 16.79 16.79 0 0 1 6.246-1.05 26.217 26.217 0 0 1 6.654.9 17.429 17.429 0 0 1 5.6 2.423l-1.868 3.677a15.74 15.74 0 0 0 -4.933-2.218 21.934 21.934 0 0 0 -5.691-.759 11.789 11.789 0 0 0 -3.765.526 5.166 5.166 0 0 0 -2.393 1.547 3.668 3.668 0 0 0 -.847 2.422 3.411 3.411 0 0 0 .788 2.277 6.351 6.351 0 0 0 2.6 1.634 34.841 34.841 0 0 0 5.137 1.4 32.117 32.117 0 0 1 7.237 2.189 8.7 8.7 0 0 1 3.737 3.006 7.82 7.82 0 0 1 1.109 4.261 8.122 8.122 0 0 1 -1.577 5.021 9.613 9.613 0 0 1 -4.465 3.181 19.6 19.6 0 0 1 -6.859 1.085z"/><path d="m1105.491 688.849v-6.421h4.553v6.421zm.117 36.016v-31.58h4.378v31.58z"/><path d="m1132.692 725.449a14.8 14.8 0 0 1 -7.793-2.13 15.048 15.048 0 0 1 -5.545-5.867 18.739 18.739 0 0 1 0-16.9 14.555 14.555 0 0 1 5.516-5.75 15.249 15.249 0 0 1 7.822-2.043 14.852 14.852 0 0 1 7.618 1.956 13.293 13.293 0 0 1 5.167 5.4v-18.329h4.319v43.079h-4.319v-6.713a13.266 13.266 0 0 1 -5.225 5.342 14.939 14.939 0 0 1 -7.56 1.955zm.643-4.027a12.665 12.665 0 0 0 6.275-1.547 10.943 10.943 0 0 0 4.32-4.349 13.2 13.2 0 0 0 1.547-6.48 12.91 12.91 0 0 0 -1.547-6.391 11 11 0 0 0 -4.32-4.32 12.665 12.665 0 0 0 -6.275-1.547 11.672 11.672 0 0 0 -5.984 1.547 10.752 10.752 0 0 0 -4.144 4.349 14.47 14.47 0 0 0 0 12.783 10.948 10.948 0 0 0 4.144 4.378 11.5 11.5 0 0 0 5.984 1.577z"/><path d="m1174.02 725.391a17.249 17.249 0 0 1 -8.552-2.1 15.158 15.158 0 0 1 -5.9-5.837 16.645 16.645 0 0 1 -2.131-8.406 17.255 17.255 0 0 1 2.014-8.376 14.587 14.587 0 0 1 5.692-5.808 16.633 16.633 0 0 1 8.405-2.1 14.849 14.849 0 0 1 7.617 1.956 13.422 13.422 0 0 1 5.195 5.429 16.755 16.755 0 0 1 1.839 7.967c0 .39-.019.788-.058 1.2s-.078.886-.116 1.43h-26.094a11.716 11.716 0 0 0 1.927 5.575 11.089 11.089 0 0 0 4.32 3.765 13.383 13.383 0 0 0 6.07 1.343 13.612 13.612 0 0 0 5.283-.964 11.929 11.929 0 0 0 4.116-2.889l2.8 2.568a16.367 16.367 0 0 1 -5.459 3.882 17.17 17.17 0 0 1 -6.968 1.365zm9.865-18.446a12.415 12.415 0 0 0 -1.606-5.516 9.2 9.2 0 0 0 -3.618-3.5 10.713 10.713 0 0 0 -5.108-1.2 12.077 12.077 0 0 0 -5.633 1.284 10.6 10.6 0 0 0 -4.028 3.619 12 12 0 0 0 -1.9 5.312z"/><path d="m1195.384 724.865v-31.58h4.378v6.305a12.613 12.613 0 0 1 2.743-3.444 13 13 0 0 1 4.145-2.481 14.406 14.406 0 0 1 5.137-.9 13.021 13.021 0 0 1 6.625 1.635 11.2 11.2 0 0 1 4.408 4.7 15.439 15.439 0 0 1 1.576 7.15v18.621h-4.32v-18.043a10.555 10.555 0 0 0 -2.423-7.384 8.815 8.815 0 0 0 -6.858-2.656 10.509 10.509 0 0 0 -5.546 1.518 11.087 11.087 0 0 0 -4 4.2 12.192 12.192 0 0 0 -1.488 6.012v16.344z"/><path d="m1247.685 725.449a17.169 17.169 0 0 1 -8.464-2.1 15.32 15.32 0 0 1 -5.954-5.838 17.435 17.435 0 0 1 0-16.811 15.324 15.324 0 0 1 5.954-5.837 17.169 17.169 0 0 1 8.464-2.1 17.612 17.612 0 0 1 6.625 1.255 15.075 15.075 0 0 1 5.458 3.765l-3.094 2.685a11.879 11.879 0 0 0 -4.145-2.86 13.26 13.26 0 0 0 -4.9-.875 12.572 12.572 0 0 0 -6.187 1.517 10.984 10.984 0 0 0 -4.32 4.32 14.234 14.234 0 0 0 0 13.017 10.927 10.927 0 0 0 4.349 4.32 13.846 13.846 0 0 0 11.15.642 11.808 11.808 0 0 0 4.056-2.919l3.094 2.627a14.8 14.8 0 0 1 -5.4 3.882 17.073 17.073 0 0 1 -6.686 1.31z"/><path d="m1266.422 688.849v-6.421h4.553v6.421zm.116 36.016v-31.58h4.378v31.58z"/><path d="m1288.778 725.449a12.968 12.968 0 0 1 -5.808-1.226 8.82 8.82 0 0 1 -3.794-3.444 9.659 9.659 0 0 1 -1.314-5.02 10.161 10.161 0 0 1 1.314-5.224 8.866 8.866 0 0 1 4.086-3.532 16.462 16.462 0 0 1 6.917-1.284 88.252 88.252 0 0 1 10.683.7v-1.46a7.561 7.561 0 0 0 -2.511-6.1 10.5 10.5 0 0 0 -7-2.13 14.694 14.694 0 0 0 -5.108.934 16.291 16.291 0 0 0 -4.583 2.568l-2.218-3.21a17.919 17.919 0 0 1 5.809-3.211 20.609 20.609 0 0 1 6.508-1.051q6.656 0 10.07 3.24t3.415 9.252v19.613h-4.378v-6.187a13.721 13.721 0 0 1 -6.714 5.75 13.841 13.841 0 0 1 -5.374 1.022zm1.342-4.027a10.311 10.311 0 0 0 5.342-1.431 11.072 11.072 0 0 0 3.853-3.736 9.849 9.849 0 0 0 1.547-4.757v-1.4a40.407 40.407 0 0 0 -4.612-.554q-2.336-.146-5.079-.146-4.671 0-6.917 1.576a5.217 5.217 0 0 0 -2.247 4.553 5.068 5.068 0 0 0 2.1 4.378 10.163 10.163 0 0 0 6.013 1.517z"/></g><g><path d="m1003.527 774.158v-4.086h10.973a18.2 18.2 0 0 0 6.654-1.08 8.732 8.732 0 0 0 4.2-3.269 9.421 9.421 0 0 0 1.46-5.341 8.356 8.356 0 0 0 -3.212-7.064q-3.21-2.451-9.047-2.451h-11.033l-4.145-4.028h15.236a22.761 22.761 0 0 1 8.96 1.6 12.621 12.621 0 0 1 5.78 4.67 14.3 14.3 0 0 1 -.03 14.681 12.881 12.881 0 0 1 -5.837 4.728 22.607 22.607 0 0 1 -8.989 1.635zm-4.145 13.542v-40.861h4.5v40.861z"/><path d="m1044.972 788.284a12.967 12.967 0 0 1 -5.808-1.226 8.825 8.825 0 0 1 -3.794-3.444 9.659 9.659 0 0 1 -1.314-5.02 10.158 10.158 0 0 1 1.314-5.224 8.866 8.866 0 0 1 4.086-3.532 16.46 16.46 0 0 1 6.917-1.284 88.227 88.227 0 0 1 10.683.7v-1.459a7.564 7.564 0 0 0 -2.51-6.1 10.507 10.507 0 0 0 -7.005-2.131 14.721 14.721 0 0 0 -5.108.934 16.291 16.291 0 0 0 -4.582 2.569l-2.219-3.211a17.936 17.936 0 0 1 5.809-3.21 20.608 20.608 0 0 1 6.508-1.051q6.656 0 10.07 3.24t3.415 9.252v19.613h-4.378v-6.187a13.715 13.715 0 0 1 -6.714 5.749 13.824 13.824 0 0 1 -5.37 1.022zm1.343-4.028a10.306 10.306 0 0 0 5.341-1.43 11.073 11.073 0 0 0 3.853-3.736 9.83 9.83 0 0 0 1.547-4.757v-1.4a40.589 40.589 0 0 0 -4.612-.555q-2.336-.145-5.079-.146-4.67 0-6.917 1.576a5.222 5.222 0 0 0 -2.247 4.553 5.069 5.069 0 0 0 2.1 4.379 10.165 10.165 0 0 0 6.014 1.516z"/><path d="m1080.405 788.225a23 23 0 0 1 -7.093-1.138 21.5 21.5 0 0 1 -6.1-3.006l1.869-3.619a21.447 21.447 0 0 0 5.6 2.773 19.248 19.248 0 0 0 5.954.963 15.563 15.563 0 0 0 4.465-.555 5.785 5.785 0 0 0 2.831-1.722 4.262 4.262 0 0 0 .994-2.86 3.731 3.731 0 0 0 -.848-2.51 6.316 6.316 0 0 0 -2.743-1.664 37.6 37.6 0 0 0 -5.341-1.313 32.773 32.773 0 0 1 -7.005-2.043 7.96 7.96 0 0 1 -3.619-2.861 7.716 7.716 0 0 1 -1.051-4.144 8.247 8.247 0 0 1 1.372-4.757 8.486 8.486 0 0 1 4-3.065 16.794 16.794 0 0 1 6.246-1.051 26.179 26.179 0 0 1 6.654.9 17.455 17.455 0 0 1 5.6 2.422l-1.867 3.678a15.712 15.712 0 0 0 -4.934-2.218 21.933 21.933 0 0 0 -5.69-.759 11.8 11.8 0 0 0 -3.766.525 5.182 5.182 0 0 0 -2.393 1.547 3.677 3.677 0 0 0 -.847 2.423 3.406 3.406 0 0 0 .789 2.276 6.34 6.34 0 0 0 2.6 1.635 34.867 34.867 0 0 0 5.137 1.4 32.094 32.094 0 0 1 7.238 2.189 8.7 8.7 0 0 1 3.736 3.006 7.817 7.817 0 0 1 1.11 4.261 8.125 8.125 0 0 1 -1.577 5.02 9.612 9.612 0 0 1 -4.466 3.182 19.613 19.613 0 0 1 -6.855 1.085z"/><path d="m1112.626 788.284a8.628 8.628 0 0 1 -9.339-9.34v-18.8h-6.3v-4.024h6.362l.292-8.522h3.97v8.522h11.383v4.028h-11.383v18.037a6.23 6.23 0 0 0 1.576 4.466 5.446 5.446 0 0 0 4.145 1.664 15.2 15.2 0 0 0 3.21-.38 9.934 9.934 0 0 0 2.86-1.021l.934 3.444a13.02 13.02 0 0 1 -3.648 1.4 17.478 17.478 0 0 1 -4.062.526z"/><path d="m1126.812 751.684v-6.421h4.552v6.421zm.116 36.016v-31.58h4.378v31.58z"/><path d="m1137.668 787.7v-2.685l20.373-24.867h-19.905v-4.028h26.033v2.68l-20.489 24.926h20.72v3.974z"/><path d="m1179.521 788.284a12.963 12.963 0 0 1 -5.808-1.226 8.826 8.826 0 0 1 -3.794-3.444 9.659 9.659 0 0 1 -1.314-5.02 10.158 10.158 0 0 1 1.314-5.224 8.862 8.862 0 0 1 4.086-3.532 16.461 16.461 0 0 1 6.917-1.284 88.2 88.2 0 0 1 10.682.7v-1.459a7.564 7.564 0 0 0 -2.51-6.1 10.5 10.5 0 0 0 -7-2.131 14.716 14.716 0 0 0 -5.108.934 16.293 16.293 0 0 0 -4.583 2.569l-2.218-3.211a17.925 17.925 0 0 1 5.809-3.21 20.6 20.6 0 0 1 6.508-1.051q6.654 0 10.07 3.24t3.414 9.252v19.613h-4.386v-6.187a13.706 13.706 0 0 1 -6.713 5.749 13.827 13.827 0 0 1 -5.366 1.022zm1.342-4.028a10.309 10.309 0 0 0 5.342-1.43 11.079 11.079 0 0 0 3.852-3.736 9.83 9.83 0 0 0 1.547-4.757v-1.4a40.57 40.57 0 0 0 -4.611-.555q-2.336-.145-5.079-.146-4.671 0-6.917 1.576a5.219 5.219 0 0 0 -2.247 4.553 5.069 5.069 0 0 0 2.1 4.379 10.162 10.162 0 0 0 6.013 1.516z"/><path d="m1204.854 787.7v-43.079h4.378v43.079z"/></g></g></svg>